<?xml version="1.0" standalone="no"?>
<!DOCTYPE svg PUBLIC "-//W3C//DTD SVG 1.1//EN" "http://www.w3.org/Graphics/SVG/1.1/DTD/svg11.dtd" >
<svg xmlns="http://www.w3.org/2000/svg">
<metadata>
This is a custom SVG webfont generated by Font Squirrel.
Copyright   : Copyright c Christopher RisdonPuckertype 2005 All rights reserved
Designer    : Christopher Risdon
Foundry     : Christopher RisdonPuckertype
Foundry URL : httpwwwt26com
</metadata>
<defs>
<font id="CheekPTBoldRegular" horiz-adv-x="819" >
<font-face units-per-em="2048" ascent="1638" descent="-410" />
<missing-glyph horiz-adv-x="409" />
<glyph unicode=" "  horiz-adv-x="409" />
<glyph unicode="&#x09;" horiz-adv-x="409" />
<glyph unicode="&#xa0;" horiz-adv-x="409" />
<glyph unicode="!" horiz-adv-x="368" d="M92 1399q12 16 30.5 34.5t45.5 34t63.5 25.5t85.5 10l-28 -1108h-168zM102 2v215h205v-215h-205z" />
<glyph unicode="&#x22;" horiz-adv-x="571" d="M66 1501h208l-20 -244q-2 -33 -9 -62.5t-24.5 -51t-48.5 -33.5t-82 -12zM334 1501h209l-23 -244q-2 -33 -9 -62.5t-23.5 -51t-48 -33.5t-83.5 -12z" />
<glyph unicode="#" horiz-adv-x="1421" d="M61 340l25 207h293l24 207h-301l25 204h301l39 355h209l-43 -355h223l39 355h209l-43 -355l311 3l-24 -207h-310l-24 -207h317l-24 -207h-318l-37 -340h-207l39 340h-221l-39 -340h-207l39 340h-295zM586 547h221l24 207h-221z" />
<glyph unicode="$" horiz-adv-x="804" d="M90 221v123q13 0 25 1q97 0 137 -30q45 -33 45 -94v-24h33v477h-6q-63 0 -105.5 10t-69 35.5t-38 67.5t-11.5 104v371q0 61 11.5 104t38 68.5t68.5 37t106 11.5h6v198h168v-198h22q61 0 104.5 -9.5t70 -34t37.5 -67.5t11 -110v-123q-207 0 -206 123v24h-39v-420h22 q61 0 104.5 -8t70 -29.5t37.5 -58.5t11 -96v-453q0 -125 -49 -173t-174 -48h-22v-199h-168v199h-17q-125 0 -174 48t-49 173zM297 866h33v420h-33v-420zM498 197h49v477h-49v-477z" />
<glyph unicode="%" horiz-adv-x="1261" d="M86 836v452q0 72 33 104.5t104 32.5h103q72 0 104.5 -32.5t32.5 -104.5v-452q0 -72 -33 -105t-104 -33h-103q-137 1 -137 138zM170 50q-1 6 -1 11q0 14 7 29l381 643l381 643q22 31 51 31q11 0 23 -4l45 -27q29 -20 32 -36.5t-8 -39.5l-764 -1286q-10 -18 -31 -27 q-10 -4 -20 -5q-11 0 -20 6q-10 4 -51 28q-21 15 -25 34zM231 848h82v430h-82v-430zM811 150v454q0 72 33 104.5t104 32.5h103q137 0 137 -137v-454q0 -72 -33 -104t-104 -32h-103q-72 0 -104.5 32t-32.5 104zM961 162h77v430h-77v-430z" />
<glyph unicode="&#x26;" horiz-adv-x="1054" d="M92 221v465q0 41 18.5 66.5t38 42t21.5 16.5q-78 98 -78 143v258q0 123 49 172.5t172 49.5h389q0 -207 -149 -207h-160q-63 0 -82 -20q-15 -16 -15 -46q0 -7 1 -14v-246h272v-186h-272v-439q0 -41 13.5 -54t37.5 -13l187 2h106v221h-92v205h457q0 -61 -14.5 -101 t-35 -62.5t-45 -32t-47.5 -9.5h-16v-432h-535q-123 0 -172 49t-49 172z" />
<glyph unicode="'" horiz-adv-x="286" d="M61 1501h209l-20 -244q-2 -33 -9.5 -62.5t-24.5 -51t-49 -33.5t-83 -12z" />
<glyph unicode="(" horiz-adv-x="573" d="M102 25v1435q0 66 22.5 114t70 86t121 70.5t173.5 65.5l35 -65v2q13 -25 13 -44q0 -26 -19 -50q-14 -17 -36.5 -29.5t-96.5 -38.5q-55 -23 -66.5 -71t-11.5 -122v-1274q0 -74 11.5 -122t66.5 -70l28 -8q13 -4 29.5 -11.5t39 -19.5t36.5 -30q19 -23 19 -49q0 -19 -13 -44 l-35 -63q-100 33 -173.5 65.5t-121 71.5t-70 87t-22.5 114z" />
<glyph unicode=")" horiz-adv-x="573" d="M79 1691q0 19 13 42l35 63q102 -33 175 -65.5t120 -71.5t69.5 -87t22.5 -112v-1435q0 -66 -22.5 -114t-69.5 -87t-120 -72t-175 -65l-35 65q-13 21 -13 40q0 5 1 9q4 23 19.5 40.5t38 30.5t93.5 40q55 23 66.5 71t11.5 121v1274q0 74 -11 122t-67 71q-12 4 -26.5 8 t-29.5 11t-37.5 20.5t-38.5 30.5q-20 24 -20 50z" />
<glyph unicode="*" horiz-adv-x="892" d="M61 1006v86l244 -5l-69 62l-68 63q-18 16 -20.5 40t20.5 40l70 62l153 -174l-4 90l-4 90q0 29 18.5 43t38.5 14h88l-8 -243l64 69l63 68q18 18 37 18q23 0 41 -18l59 -66l-174 -158q141 4 183 7q59 0 59 -58v-86l-244 4l68 -61l67 -62q18 -18 20.5 -41.5t-20.5 -41.5v2 l-15 -14.5l-15 -14.5l-39 -27l-152 170l6 -182q0 -29 -17 -43t-38 -14h-90l10 241l-62 -67l-63 -66q-18 -18 -41 -18q-20 0 -39 18l-59 62l174 159l-182 -4q-60 1 -60 56z" />
<glyph unicode="+" horiz-adv-x="813" d="M41 477v180h285v261q0 29 17 43t40 14h125v-318h289v-178h-289v-241q0 -29 -16.5 -43.5t-38.5 -14.5h-127v297h-285z" />
<glyph unicode="," horiz-adv-x="374" d="M61 -135l76 219v137h207v-147l-63 -105q-31 -47 -56.5 -75.5t-74.5 -28.5h-89z" />
<glyph unicode="-" horiz-adv-x="765" d="M61 502v205h668v-207z" />
<glyph unicode="." horiz-adv-x="307" d="M61 0v217h205v-217h-205z" />
<glyph unicode="/" horiz-adv-x="692" d="M41 0l446 1503h209l-448 -1503h-207z" />
<glyph unicode="0" horiz-adv-x="776" d="M92 221v991q0 119 49 170.5t172 51.5h179q123 0 172 -51.5t49 -170.5v-991q0 -119 -51.5 -170t-169.5 -51h-179q-119 0 -170 51t-51 170zM299 207h207v1020h-207v-1020z" />
<glyph unicode="1" horiz-adv-x="452" d="M82 1079v148q53 29 82 68.5t45 70.5q16 29 29.5 48.5t35.5 19.5h123v-1434h-204v1079h-111z" />
<glyph unicode="2" horiz-adv-x="778" d="M92 0v508l416 514v205h-293q-47 0 -85 54t-38 153h402q119 0 170 -51.5t51 -170.5v-268l-418 -516v-221h295q47 0 85 -54.5t38 -152.5h-623z" />
<glyph unicode="3" horiz-adv-x="749" d="M72 0q0 68 12 109t36.5 62.5t63.5 28.5t92 7h152q25 0 38 12t13 55v390h-270v186h270v297q4 41 -13 60.5t-81 19.5h-160q-152 0 -151 207h391q123 0 172 -49.5t49 -172.5v-297q0 -37 -18.5 -70.5t-40 -56t-21.5 -26.5t20.5 -19.5t40 -42t19.5 -67.5v-412q0 -123 -49 -172 t-172 -49h-393z" />
<glyph unicode="4" horiz-adv-x="768" d="M92 723l182 711h211l-178 -734h201v437h207v-1137h-207v496h-195q-74 0 -117.5 9t-67.5 33.5t-31 67.5q-6 33 -5 86v31z" />
<glyph unicode="5" horiz-adv-x="765" d="M86 836l43 378q4 113 55.5 166.5t167.5 53.5h115q119 0 170 -41t51 -123v-43h-356l-19 -202l-18 -206h192q98 0 160 -51t62 -170v-377q0 -119 -51.5 -170t-170.5 -51h-368v209h383v405h-195q-117 0 -166 51.5t-55 170.5z" />
<glyph unicode="6" horiz-adv-x="778" d="M92 221v991q0 119 51.5 170.5t169.5 51.5h119q119 0 170 -41t51 -123v-45h-354v-406h195q98 0 159.5 -51t61.5 -170v-377q0 -119 -51.5 -170t-169.5 -51h-181q-119 0 -170 51t-51 170zM299 207h209v422h-209v-422z" />
<glyph unicode="7" horiz-adv-x="727" d="M61 1434h439q98 0 145 -36t47 -116q0 -18 -2 -37.5t-6 -38.5v2l-120 -604l-120 -604h-208l163 819l82 408h-282q-29 0 -54.5 17.5t-44 47t-29 66.5t-10.5 76z" />
<glyph unicode="8" horiz-adv-x="782" d="M92 215v412q0 45 24.5 69.5t50.5 45t26 28.5t-25 26.5t-50.5 48t-25.5 64.5v297q0 119 50.5 172.5t172.5 53.5l181 2h9q115 0 164 -49q50 -50 50 -173v-297q0 -37 -25.5 -65.5t-50.5 -49t-25 -28.5q0 -6 26 -25.5t50.5 -45t24.5 -68.5v-412q0 -123 -50.5 -172t-172.5 -49 h-181q-123 0 -173 47t-50 168zM303 207h209v446h-209v-446zM303 860h209v367h-209v-367z" />
<glyph unicode="9" horiz-adv-x="772" d="M86 815v397q0 119 51 170.5t170 51.5h180q119 0 170.5 -51.5t51.5 -170.5v-991q0 -119 -51.5 -170t-170.5 -51h-118q-119 0 -170.5 41t-51.5 123v43h355v387h-195q-98 0 -159.5 51t-61.5 170zM276 784h226v443h-226v-443z" />
<glyph unicode=":" horiz-adv-x="374" d="M82 2v215h205v-215h-205zM82 645v217h205v-217h-205z" />
<glyph unicode=";" horiz-adv-x="374" d="M61 -135l76 219v137h207v-147l-63 -105q-31 -47 -56.5 -75.5t-74.5 -28.5h-89zM137 645v217h207v-217h-207z" />
<glyph unicode="&#x3c;" horiz-adv-x="849" d="M82 741l405 389q41 35 85 51.5t87 16.5q31 0 73 -13l91 -30l-442 -414l442 -413q-45 -18 -86 -29.5t-69 -11.5q-92 0 -181 69z" />
<glyph unicode="=" horiz-adv-x="790" d="M10 395v60q0 35 20.5 54t53.5 19h645q33 0 52.5 -19.5t19.5 -53.5v-60q0 -33 -19.5 -52t-52.5 -19h-645q-33 0 -53.5 19t-20.5 52zM10 686v62q0 33 20.5 52t53.5 19h645q33 0 52.5 -19.5t19.5 -51.5v-62q0 -33 -19.5 -52.5t-52.5 -19.5h-645q-33 0 -53.5 19.5t-20.5 52.5 z" />
<glyph unicode="&#x3e;" horiz-adv-x="849" d="M82 328l442 413l-442 414l91 30q42 13 73 13q43 0 87 -16.5t85 -51.5l407 -389l-407 -385q-88 -70 -180 -69q-29 0 -70 11.5t-86 29.5z" />
<glyph unicode="?" horiz-adv-x="753" d="M51 1485l434 -2q111 0 166.5 -47t55.5 -174v-283l-306 -416v-198h-206v264l307 415v234h-289q-72 0 -117 54.5t-45 152.5zM195 2v215h206v-215h-206z" />
<glyph unicode="@" horiz-adv-x="1202" d="M82 365v862q0 117 45 162t160 45h620q115 0 160 -45.5t45 -161.5v-578q0 -113 -45 -158t-160 -45h-196l-16 19q-5 6 -9 14q-29 -16 -78 -27.5t-102 -11.5q-98 0 -138 44t-40 139v112q0 100 39 138t139 38h160v78h-144q-57 0 -94 46t-37 128h271q176 0 176 -178l2 -364h96 v639h-680v-928h592q57 0 95 -46t38 -128h-694q-115 0 -160 45t-45 162zM500 614h67q39 0 69 18.5t30 63.5v43h-166v-125z" />
<glyph unicode="A" horiz-adv-x="804" d="M92 1262q0 61 11.5 104t38 68.5t68.5 37t105 11.5h197q63 0 106.5 -11.5t69 -37t36.5 -68.5t11 -104v-1262h-207v664h-229v-664h-207v1262zM299 868h229v410h-229v-410z" />
<glyph unicode="B" horiz-adv-x="811" d="M102 0v1483h420q63 0 106.5 -11.5t69 -37t36.5 -68.5t11 -104v-318q0 -33 -9 -73t-50 -64q-57 -35 -55 -35l67 -49q18 -16 32.5 -36.5t14.5 -63.5v-402q0 -125 -48 -173t-175 -48h-420zM309 207h230v457h-230v-457zM309 868h230v410h-230v-410z" />
<glyph unicode="C" horiz-adv-x="811" d="M102 221v1041q0 61 11.5 104t38 68.5t68.5 37t106 11.5h419v-318h-182q-8 37 -25.5 59.5t-45 36t-73.5 15.5t-110 2v-1071h240v53q0 86 43 125t153 39v-203q0 -61 -11 -104t-36.5 -68.5t-68.5 -37t-107 -11.5h-196q-63 0 -105.5 11.5t-69 37t-38 68.5t-11.5 104z" />
<glyph unicode="D" d="M102 0v1483h420q63 0 106.5 -11.5t69 -37t36.5 -68.5t11 -104v-1041q0 -61 -11 -104t-36.5 -68.5t-68.5 -37t-107 -11.5h-420zM309 207h230v1069h-230v-1069z" />
<glyph unicode="E" horiz-adv-x="727" d="M102 0v1483h598l-38 -205h-351v-410h285v-204h-285v-457h351l38 -207h-598z" />
<glyph unicode="F" horiz-adv-x="706" d="M102 0v1483h598l-38 -207h-353v-408h287v-204h-287v-664h-207z" />
<glyph unicode="G" horiz-adv-x="811" d="M102 221v1041q0 61 11.5 104t38 68.5t68.5 37t106 11.5h419v-316h-182q-14 72 -74 93q-54 19 -158 18h-22v-1071h230v317h-15q-76 0 -114.5 48.5t-38.5 158.5h374v-510q0 -61 -11 -104t-39.5 -68.5t-76 -37t-118.5 -11.5h-174q-63 0 -105.5 11.5t-69 37t-38 68.5 t-11.5 104z" />
<glyph unicode="H" horiz-adv-x="862" d="M102 0v1483h205v-615h273v615h204v-1483h-204v664h-273v-664h-205z" />
<glyph unicode="I" horiz-adv-x="368" d="M102 0v1483h205v-1483h-205z" />
<glyph unicode="J" horiz-adv-x="401" d="M-100 -246q0 41 28.5 61.5t118.5 59.5q55 23 66.5 70t11.5 121v1417h207l-2 -1503q0 -61 -22.5 -108.5t-71 -86.5t-121 -71.5t-172.5 -65.5l-33 63q-10 27 -10 43z" />
<glyph unicode="K" horiz-adv-x="817" d="M102 0v1395h205v-453l230 541h225l-332 -758l379 -725h-234l-268 502v-502h-205z" />
<glyph unicode="L" horiz-adv-x="757" d="M102 1483h207v-1276h189q8 59 53 93t131 34h33v-334h-613v1483z" />
<glyph unicode="M" horiz-adv-x="1318" d="M102 0v1483h131q35 -20 52 -56q39 29 89 46.5t91 17.5q86 0 139 -26.5t90 -67.5q41 41 107.5 66.5t124.5 25.5q88 0 146 -26.5t93 -69.5t49.5 -98.5t14.5 -112.5v-1182h-207v1145q0 70 -37 100.5t-88 30.5q-53 0 -91 -34t-38 -97v-1145h-205v1145q0 70 -37 100.5 t-90 30.5t-90 -34t-37 -97v-1145h-207z" />
<glyph unicode="N" horiz-adv-x="860" d="M102 0v1483h131q16 -12 28.5 -26.5t23.5 -31.5q39 29 91 47.5t97 18.5q86 0 145.5 -26.5t96.5 -70.5t52 -99.5t15 -112.5v-1182h-204v1145q0 70 -41 100.5t-94.5 30.5t-94.5 -34t-41 -97v-1145h-205z" />
<glyph unicode="O" d="M102 221v1041q0 61 11.5 104t38 68.5t68.5 37t106 11.5h196q63 0 106.5 -11.5t69 -37t36.5 -68.5t11 -104v-1041q0 -61 -11 -104t-36.5 -68.5t-68.5 -37t-107 -11.5h-196q-63 0 -105.5 11.5t-69 37t-38 68.5t-11.5 104zM309 207h230v1071h-230v-1071z" />
<glyph unicode="P" horiz-adv-x="802" d="M102 0v1483h131q35 -20 52 -56q37 29 86 45.5t90 16.5h71q121 0 167 -54.5t46 -172.5v-396q0 -119 -49 -160.5t-153 -41.5h-234v-664h-207zM309 868h230v410h-90q-63 0 -101.5 -21.5t-38.5 -78.5v-310z" />
<glyph unicode="Q" d="M102 221v1041q0 61 11.5 104t38 68.5t68.5 37t106 11.5h196q63 0 106.5 -11.5t69 -37t36.5 -68.5t11 -104v-1041q0 -119 -45 -168t-159 -53l98 -199h-109q-47 0 -72.5 26t-43 51.5t-19.5 27.5l-63 94h-6q-63 0 -105.5 11.5t-69 37t-38 68.5t-11.5 104zM309 207h230v1071 h-230v-1071z" />
<glyph unicode="R" horiz-adv-x="862" d="M102 0v1483h441q123 0 172 -49.5t49 -171.5v-377q0 -111 -42 -160t-106 -59l116 -333l116 -333h-211l-229 664h-99v-664h-207zM309 868h250v410h-250v-410z" />
<glyph unicode="S" horiz-adv-x="829" d="M102 221v123h35q98 0 135 -31.5t37 -91.5v-14h240v457h-213q-63 0 -105.5 11t-69 36.5t-37.5 68.5t-11 105v377q0 61 11 104t37.5 68.5t68.5 37t106 11.5h196q61 0 104.5 -9.5t70 -34t38 -67.5t11.5 -110v-123q-207 0 -207 123v16h-230v-410h213q125 0 174.5 -42 t49.5 -158v-447q0 -125 -49.5 -173t-174.5 -48h-206q-125 0 -174.5 48t-49.5 173z" />
<glyph unicode="T" horiz-adv-x="774" d="M70 1278v205h659v-205h-227v-1278h-205v1278h-227z" />
<glyph unicode="U" horiz-adv-x="860" d="M102 301v1184h205v-1147q0 -70 41 -100.5t94.5 -30.5t94.5 33.5t41 97.5v1147h204v-1485h-131q-16 12 -28.5 27.5t-22.5 29.5q-39 -29 -90 -46t-98 -17q-86 0 -145.5 26.5t-96.5 70.5t-52.5 99.5t-15.5 110.5z" />
<glyph unicode="V" horiz-adv-x="794" d="M49 1483h209l158 -948l157 948h209l-286 -1483h-160z" />
<glyph unicode="W" horiz-adv-x="1351" d="M102 301v1182h205v-1143q0 -70 41 -101.5t94.5 -31.5t94.5 34.5t41 98.5v1143h204v-1143q0 -70 41 -101.5t94.5 -31.5t94.5 31.5t41 101.5v1143h204v-1182q0 -55 -15 -110.5t-52 -99.5t-96.5 -70.5t-147.5 -26.5q-119 0 -178 23.5t-88 56.5q-31 -31 -94.5 -55.5 t-173.5 -24.5q-86 2 -145.5 29.5t-96.5 70.5t-52.5 97.5t-15.5 109.5z" />
<glyph unicode="X" horiz-adv-x="796" d="M49 1483h209l164 -473l160 473h211l-254 -717l249 -766h-210l-156 510l-162 -510h-209l254 766z" />
<glyph unicode="Y" d="M41 1483h207l184 -541l180 541h207l-284 -789v-694h-207v694l-145 395z" />
<glyph unicode="Z" horiz-adv-x="913" d="M90 221v107l528 880v70h-503v205h487q111 0 167 -47t56 -174v-97l-528 -880v-78h508v-207h-492q-63 0 -105 11.5t-68.5 37t-38 68.5t-11.5 104z" />
<glyph unicode="[" horiz-adv-x="665" d="M92 -117v1716q0 123 49 173.5t172 50.5h320q0 -45 -13.5 -83t-37 -65.5t-52 -43t-59.5 -15.5h-174v-1749h174q31 0 59.5 -15.5t52 -43t37 -64.5t13.5 -82h-320q-123 0 -172 51t-49 170z" />
<glyph unicode="\" horiz-adv-x="692" d="M41 1503h209l446 -1503h-207z" />
<glyph unicode="]" horiz-adv-x="665" d="M61 -338q0 45 13.5 82t37 64.5t52.5 43t59 15.5h174v1749h-174q-31 0 -59.5 15.5t-52 43t-37 65.5t-13.5 83h320q123 0 172 -50.5t49 -173.5v-1716q0 -119 -49 -170t-172 -51h-320z" />
<glyph unicode="^" horiz-adv-x="972" d="M41 815q0 100 68 182l385 469l389 -469q37 -43 51 -87t14 -85q0 -31 -11 -72.5t-32 -90.5l-411 499l-414 -502q-18 47 -28.5 85t-10.5 71z" />
<glyph unicode="_" horiz-adv-x="815" d="M0 -219h842v-176h-842v176z" />
<glyph unicode="`" horiz-adv-x="567" d="M102 1346l82 194q262 -139 294 -165.5t32 -80.5q0 -33 -27 -84z" />
<glyph unicode="a" horiz-adv-x="804" d="M92 221v199q0 61 11.5 104t38 68.5t68.5 37t105 11.5h213v190h-194q-70 0 -116 54.5t-46 152.5h340q223 0 223 -223v-815h-157q-12 14 -17 26l-10 27q-35 -20 -99.5 -39.5t-136.5 -19.5q-123 0 -173 55t-50 172zM299 207h94q51 0 93 26.5t42 88.5v110h-229v-225z" />
<glyph unicode="b" horiz-adv-x="808" d="M102 0v1483h207v-445h213q123 0 173 -50t50 -173v-594q0 -119 -50 -170t-173 -51h-420zM309 207h230v624h-230v-624z" />
<glyph unicode="c" horiz-adv-x="811" d="M98 221v594q0 123 50.5 173t173.5 50h419v-315h-182q-16 70 -74.5 89t-179.5 19v-624h230v53q0 82 37.5 122t136.5 40h32v-201q0 -119 -50 -170t-173 -51h-196q-123 0 -173.5 51t-50.5 170z" />
<glyph unicode="d" horiz-adv-x="811" d="M98 225v590q0 123 50.5 173t173.5 50h213v445h206v-1483h-157q-10 14 -15.5 23.5t-11.5 29.5q-39 -18 -105.5 -40.5t-134.5 -22.5q-123 0 -171 58t-48 177zM305 207h94q51 0 93.5 26.5t42.5 88.5v509h-230v-624z" />
<glyph unicode="e" horiz-adv-x="811" d="M98 221v594q0 123 50.5 173t173.5 50h196q123 0 173 -50t50 -173v-360h-436v-248h230q2 78 38.5 115.5t135.5 37.5h32v-139q0 -119 -50 -170t-173 -51h-196q-100 0 -162 51t-62 170zM305 651h230v178h-230v-178z" />
<glyph unicode="f" horiz-adv-x="608" d="M49 831v207h139v224q0 119 51.5 170t170.5 51h258q0 -43 -14.5 -80t-37 -64.5t-51 -43t-59.5 -15.5h-113v-242h199q0 -117 -38 -162t-95 -45h-66v-831h-205v831h-139z" />
<glyph unicode="g" horiz-adv-x="811" d="M98 221v594q0 119 50.5 174t173.5 55q72 0 136 -19t99 -42q4 23 10 33t17 22h157v-1155q0 -119 -50 -170t-173 -51h-319q0 45 13 82t36.5 64.5t52.5 43t59 15.5h175v133h-213q-123 0 -173.5 51t-50.5 170zM305 209h230v489q0 72 -43 102.5t-97 30.5h-90v-622z" />
<glyph unicode="h" horiz-adv-x="811" d="M98 0v1483h207v-494q37 18 96.5 38t120.5 20q123 0 171 -54.5t48 -177.5v-815h-206v831h-91q-53 0 -96 -30.5t-43 -102.5v-698h-207z" />
<glyph unicode="i" horiz-adv-x="348" d="M92 0v1038h205v-1038h-205zM92 1249v236h205v-236h-205z" />
<glyph unicode="j" horiz-adv-x="358" d="M-109 -213q0 43 32 65.5t61 38.5l63 27q37 12 43 39t6 61v1020h35q78 0 125 -49t47 -119v-886q0 -55 -18.5 -100.5t-61.5 -81t-112.5 -65.5t-171.5 -56l-35 61q-4 10 -8.5 22.5t-4.5 22.5zM96 1249v236h207v-236h-207z" />
<glyph unicode="k" horiz-adv-x="718" d="M98 0v1483h207v-705l162 260h223l-270 -430l330 -608h-228l-217 397v-397h-207z" />
<glyph unicode="l" horiz-adv-x="360" d="M98 0v1419q0 25 17.5 48.5t46 42t65.5 29.5t76 11v-1550h-205z" />
<glyph unicode="m" horiz-adv-x="1310" d="M98 0v1038h131q35 -23 52 -59q39 27 89 46t91 19q86 0 139 -26.5t90 -67.5q43 45 107.5 69.5t124.5 24.5q88 0 146 -26.5t93 -70.5t49.5 -99t14.5 -111v-737h-207v698q0 72 -37 102.5t-88 30.5q-53 0 -91 -33.5t-38 -99.5v-698h-205v698q0 72 -37 102.5t-90 30.5 t-90 -33.5t-37 -99.5v-698h-207z" />
<glyph unicode="n" horiz-adv-x="851" d="M98 0v1038h133q16 -12 28 -28l22 -33q39 29 90 48t98 19q86 0 145.5 -26.5t96.5 -70.5t52 -99t15 -111v-737h-205v698q0 72 -40.5 102.5t-94 30.5t-94.5 -33.5t-41 -99.5v-698h-205z" />
<glyph unicode="o" horiz-adv-x="811" d="M98 221v594q0 123 50.5 173t173.5 50h196q123 0 173 -50t50 -173v-594q0 -119 -50 -170t-173 -51h-196q-123 0 -173.5 51t-50.5 170zM305 207h230v624h-230v-624z" />
<glyph unicode="p" horiz-adv-x="811" d="M98 -338v1376h152q14 -16 20 -27.5t11 -27.5q37 23 103.5 42t137.5 19q123 0 171 -55t48 -178v-590q0 -119 -50 -170t-173 -51h-213v-338h-207zM305 207h230v624h-91q-53 0 -96 -30.5t-43 -102.5v-491z" />
<glyph unicode="q" horiz-adv-x="811" d="M98 221v594q0 123 50.5 173t173.5 50h419v-1376h-206v338h-213q-68 0 -111 13.5t-67.5 41t-35 68.5t-10.5 98zM305 207h230v624h-230v-624z" />
<glyph unicode="r" horiz-adv-x="681" d="M98 0v1038h152l4 -4q10 -10 17.5 -23.5t11.5 -25.5q29 18 79 35.5t121 17.5h217q0 -86 -37.5 -147.5t-115.5 -61.5h-15l-81 7q-27 0 -53.5 -6.5t-47 -21.5t-33 -42t-12.5 -68v-698h-207z" />
<glyph unicode="s" horiz-adv-x="802" d="M94 647v168q0 123 50.5 173t172.5 50h379q0 -43 -13 -80.5t-36.5 -65.5t-52.5 -44.5t-59 -16.5h-234v-200h213q123 0 173 -51.5t50 -169.5v-189q0 -119 -50 -170t-173 -51h-405q0 61 14 101t36.5 63.5t51.5 33t59 9.5h260v219h-213q-57 0 -99 9t-69.5 34t-41 67.5 t-13.5 110.5z" />
<glyph unicode="t" horiz-adv-x="600" d="M51 831v207h137v92q0 70 59.5 112t147.5 42v-246h197q0 -61 -14.5 -102t-35 -63.5t-45 -32t-46.5 -9.5h-56v-831h-207v831h-137z" />
<glyph unicode="u" horiz-adv-x="851" d="M98 301v737h205v-700q0 -70 41 -100.5t94.5 -30.5t94 33.5t40.5 97.5v700h205v-1038h-149q-14 16 -22 30l-11 21q-41 -25 -92 -42t-96 -17q-86 0 -145.5 26.5t-96.5 70.5t-52.5 99.5t-15.5 112.5z" />
<glyph unicode="v" horiz-adv-x="811" d="M37 1038h211l178 -716l178 716h211l-293 -1038h-192z" />
<glyph unicode="w" horiz-adv-x="1310" d="M98 301v737h207v-700q0 -70 37 -100.5t90 -30.5t90 33.5t37 97.5v700h205v-700q0 -70 37 -100.5t90 -30.5t90 30.5t37 100.5v700h207v-737q0 -55 -15.5 -111.5t-50.5 -100.5t-94 -71.5t-145 -27.5q-57 0 -97.5 7t-69 19.5t-49 28.5t-42.5 39q-37 -37 -92.5 -65.5 t-166.5 -28.5q-86 2 -145 29.5t-94 71.5t-50.5 99.5t-15.5 110.5z" />
<glyph unicode="x" horiz-adv-x="761" d="M37 0l260 516l-260 522h215l156 -317l157 317h213l-254 -522l254 -516h-213l-157 315l-158 -315h-213z" />
<glyph unicode="y" horiz-adv-x="794" d="M35 1038h211l178 -682l182 682h195l-375 -1411l-180 56l82 317z" />
<glyph unicode="z" horiz-adv-x="798" d="M92 203v119l436 473v36h-432v207h639v-311l-436 -475v-45h436v-207h-440q-59 0 -98 9t-62.5 33t-33 63t-9.5 98z" />
<glyph unicode="{" horiz-adv-x="706" d="M78 664v204h98l70 50v83v459q0 63 22.5 111.5t69.5 87.5t120.5 71.5t176.5 65.5l33 -65l-2 2q12 -20 12 -43q0 -41 -31 -63.5t-63 -39.5l-56 -16q-53 -23 -64 -71t-11 -122v-434q-2 -33 -15.5 -73t-50.5 -66l-51 -33q57 -39 68.5 -49t29 -31.5t17.5 -68.5v-101v-418 q0 -10 -1 -19q0 -61 12 -102q13 -48 66 -71l32 -10q19 -6 30 -11q31 -16 59.5 -36.5t28.5 -61.5q0 -23 -12 -43l2 2l-33 -65q-100 33 -174 65.5t-121 71.5t-70.5 87t-23.5 109v605l-64 39h-104z" />
<glyph unicode="|" horiz-adv-x="266" d="M61 -338v1841h185v-1841h-185z" />
<glyph unicode="}" horiz-adv-x="706" d="M57 -207q0 39 24.5 57.5t53.5 34.5l72 27q53 23 64.5 71t11.5 121v519q0 41 14 61.5t35 38.5l67 49l-66 46q-22 15 -35 54t-15 72v434q0 74 -11.5 122t-64.5 71l-32 10q-19 6 -30 10q-31 16 -59.5 37t-28.5 62q0 23 13 43l-2 -2l32 65q102 -33 176 -65.5t121 -71.5 t69.5 -87t22.5 -112v-567l70 -25h98v-204h-104l-64 -39v-605q0 -61 -23.5 -109t-70.5 -87t-120.5 -72t-174.5 -65l-32 65q-11 18 -11 41z" />
<glyph unicode="~" horiz-adv-x="735" d="M98 1135v196l74 70q35 27 84 26q39 0 80 -22l135 -84q23 -18 47 -18q20 0 41 18l23 22l30 29l31 27q14 12 23 18v-203l-72 -61q-37 -31 -86 -31t-82 27l-135 86q-14 14 -45 14q-18 0 -41 -18q-8 -6 -24 -20l-30 -27l-30 -28z" />
<glyph unicode="&#xa1;" horiz-adv-x="368" d="M92 106l29 1002h168l28 -1106q-49 0 -85.5 10.5t-63.5 25.5t-45.5 33.5t-30.5 34.5zM102 1286v217h205v-217h-205z" />
<glyph unicode="&#xa2;" horiz-adv-x="737" d="M61 508v467q0 119 50.5 170t173.5 51h14v178h197v-178h209v-305h-183q-16 70 -79.5 89t-184.5 19v-516h250v43q0 86 40 126q36 36 135 37q10 0 22 -1v-180q0 -117 -49.5 -167t-159.5 -54v-178h-197v178h-14q-123 0 -173.5 51t-50.5 170z" />
<glyph unicode="&#xa3;" horiz-adv-x="839" d="M51 709v204h139v349q0 119 51.5 170t170.5 51h258q0 -43 -14.5 -80t-37 -64.5t-51 -43t-59.5 -15.5h-113v-367h199q0 -117 -38 -161.5t-95 -44.5h-66v-500h193q8 63 59 96q48 31 144 31h12v-334h-613v709h-139z" />
<glyph unicode="&#xa5;" d="M41 1483h207l168 -471l16 -60l19 60l161 471h207l-287 -789v-141h158v-172h-158v-381h-204v381h-156v172h156v141l-145 395z" />
<glyph unicode="&#xa6;" horiz-adv-x="329" d="M92 -340v860h187v-860h-187zM94 674v811h185v-811h-185z" />
<glyph unicode="&#xa7;" horiz-adv-x="501" d="M61 96v201h129v-176h154v174q-262 295 -270 303q-12 25 -13 43v160q0 37 28 67.5t69 30.5h135l-100 112l-82 92q-31 36 -35 41t-9.5 15t-5.5 31v199q0 39 28 68.5t69 29.5h221q45 0 71.5 -27.5t26.5 -73.5v-161h-129v139h-155v-156l122 -136l123 -136q23 -27 31 -44.5 t8 -37.5v-203q0 -41 -26.5 -70.5t-71.5 -29.5h-92l75 -79l76 -79q23 -27 31 -45t8 -37v-213q0 -41 -26.5 -70.5t-71.5 -29.5h-221q-37 0 -67 25.5t-30 72.5zM184 676h168v98h-168v-98z" />
<glyph unicode="&#xa8;" horiz-adv-x="550" d="M41 1227v209h197v-209h-197zM346 1227v209h197v-209h-197z" />
<glyph unicode="&#xa9;" horiz-adv-x="1441" d="M61 862q0 147 49.5 269t137.5 209t210 135.5t265 48.5q145 0 267 -49.5t210 -137.5t136 -208.5t48 -266.5q0 -147 -48 -268t-136 -209t-210 -136t-267 -48t-267 47t-209 133t-136.5 208.5t-49.5 272.5zM227 862q0 -246 135.5 -376t362.5 -130q115 0 207 35t156.5 101.5 t99.5 159.5t35 210q0 115 -34 207t-98.5 158.5t-156.5 102.5t-209 36t-209 -36t-156.5 -101.5t-98.5 -158.5t-34 -208zM451 629v440q0 88 38.5 129t131.5 41h356v-248h-146q-12 53 -67 67.5t-148 14.5v-446h197v28q0 68 35 98.5t129 30.5v-155q0 -92 -40 -131t-132 -39h-184 q-92 0 -131 39t-39 131z" />
<glyph unicode="&#xaa;" horiz-adv-x="579" d="M61 891v147q0 96 36 133t134 37h156v131h-139q-57 0 -92 43t-35 121h260q170 0 170 -170v-614h-125q-10 8 -13 15l-7 18q-29 -14 -76 -25.5t-99 -11.5q-92 0 -131 42t-39 134zM225 885h66q37 0 66.5 19.5t29.5 60.5v75h-162v-155z" />
<glyph unicode="&#xab;" horiz-adv-x="1380" d="M82 741l405 389q80 68 170 68q31 0 73 -13l91 -30l-440 -414l220 -206l220 -207q-45 -18 -85 -29.5t-68 -11.5q-92 0 -181 69zM604 741l406 389q80 68 170 68q31 0 73.5 -13.5l89.5 -29.5l-440 -414l220 -206l220 -207q-45 -18 -84.5 -29.5t-68.5 -11.5q-92 0 -180 69z " />
<glyph unicode="&#xad;" horiz-adv-x="765" d="M61 502v205h668v-207z" />
<glyph unicode="&#xae;" horiz-adv-x="1441" d="M61 860q0 147 49.5 269t137.5 209t210 135.5t265 48.5q145 0 267 -49.5t210 -137.5t136 -208.5t48 -266.5q0 -147 -48 -268t-136 -209t-210 -136t-267 -48t-267 47t-209 133t-136.5 208.5t-49.5 272.5zM227 860q0 -246 135.5 -376t362.5 -130q115 0 207 35t156.5 101.5 t99.5 159.5t35 210q0 115 -34 207t-98.5 158.5t-156.5 102.5t-209 36t-209 -36t-156.5 -101.5t-98.5 -158.5t-34 -208zM520 461v762h281q68 0 97.5 -30t29.5 -95v-205q0 -59 -20.5 -87t-53.5 -36l60 -155l61 -154h-158l-117 307h-26v-307h-154zM674 922h98v147h-98v-147z " />
<glyph unicode="&#xaf;" horiz-adv-x="509" d="M51 1319v182h346h95v-182h-441z" />
<glyph unicode="&#x2c9;" horiz-adv-x="509" d="M51 1319v182h346h95v-182h-441z" />
<glyph unicode="&#xb0;" horiz-adv-x="491" d="M51 1282q0 92 59.5 151.5t151.5 59.5t151.5 -59.5t59.5 -151.5t-59.5 -152.5t-151.5 -60.5t-151.5 60.5t-59.5 152.5zM195 1282q0 -29 20.5 -48.5t47 -19.5t47 19.5t20.5 48.5q0 27 -20.5 46.5t-47 19.5t-47 -19.5t-20.5 -46.5z" />
<glyph unicode="&#xb1;" horiz-adv-x="813" d="M41 160v180h756v-178h-312zM41 662v180l285 -2v262q0 29 17 43t40 14h125v-319q70 0 146.5 1t142.5 1v-178h-289v-242q0 -29 -16.5 -43t-38.5 -14h-127v297h-285z" />
<glyph unicode="&#xb2;" horiz-adv-x="524" d="M92 573v306l238 295v102h-156q-33 0 -57.5 36t-24.5 101h240q72 0 104.5 -31.5t32.5 -103.5v-158l-240 -297v-110h158q33 0 57.5 -37t24.5 -103h-377z" />
<glyph unicode="&#xb3;" horiz-adv-x="520" d="M92 1413h236q72 0 104.5 -31.5t32.5 -103.5v-172q0 -27 -10.5 -43t-32.5 -45q18 -14 30.5 -29.5t12.5 -44.5v-233q0 -74 -31 -106t-106 -32h-236q0 90 31 115t96 25h88q8 0 13.5 5t5.5 25v207h-156v127h156v164q2 35 -43 35h-95q-96 0 -96 137z" />
<glyph unicode="&#xb4;" horiz-adv-x="444" d="M16 1276q0 47 33 75.5t76 51.5q47 27 108.5 58.5t108.5 58.5l82 -195l-383 -137q-14 29 -19.5 50.5t-5.5 37.5z" />
<glyph unicode="&#xb5;" horiz-adv-x="839" d="M92 -338v1376h205v-700q0 -70 41 -100.5t94 -30.5t94 33.5t41 97.5v700h205v-1038h-149q-16 14 -22.5 23.5t-10.5 21.5q-41 -25 -92.5 -39t-96.5 -14q-33 2 -55 5t-49 11v-346h-205z" />
<glyph unicode="&#x3bc;" horiz-adv-x="839" d="M92 -338v1376h205v-700q0 -70 41 -100.5t94 -30.5t94 33.5t41 97.5v700h205v-1038h-149q-16 14 -22.5 23.5t-10.5 21.5q-41 -25 -92.5 -39t-96.5 -14q-33 2 -55 5t-49 11v-346h-205z" />
<glyph unicode="&#xb6;" horiz-adv-x="970" d="M61 672v590q0 119 50.5 170t173.5 51h655v-205h-141v-1278h-207v1278h-62v-1278h-206v449h-39q-133 0 -178.5 54t-45.5 169z" />
<glyph unicode="&#xb7;" horiz-adv-x="272" d="M41 434.5q0 18.5 11 39t27.5 36.5t38 27.5t40 11.5t39 -11.5t37 -27.5t27.5 -36.5t11 -39t-11 -40t-27.5 -38t-37 -28t-39 -11.5t-39 11.5t-38 29t-28.5 38t-11 39z" />
<glyph unicode="&#x2219;" horiz-adv-x="272" d="M41 434.5q0 18.5 11 39t27.5 36.5t38 27.5t40 11.5t39 -11.5t37 -27.5t27.5 -36.5t11 -39t-11 -40t-27.5 -38t-37 -28t-39 -11.5t-39 11.5t-38 29t-28.5 38t-11 39z" />
<glyph unicode="&#xb8;" horiz-adv-x="407" d="M41 -334q0 66 24.5 101.5t57.5 35.5h131v29l-119 119v96h164v-72l104 -102v-207h-362z" />
<glyph unicode="&#xb9;" horiz-adv-x="370" d="M92 1182v102q33 16 52.5 40t29.5 40q14 23 26.5 36t28.5 13h90v-840h-147v609h-80z" />
<glyph unicode="&#xba;" horiz-adv-x="581" d="M61 891v442q0 92 40 132t132 40h148q92 0 132 -40t40 -132v-442q0 -92 -40 -132t-132 -40h-148q-92 0 -132 40t-40 132zM227 885h160v454h-160v-454z" />
<glyph unicode="&#xbb;" horiz-adv-x="1380" d="M72 328l440 413l-220 207l-220 207l90 29.5t74 13.5q90 0 170 -68l407 -389l-407 -385q-88 -70 -181 -69q-29 0 -68.5 11.5t-84.5 29.5zM594 328l440 413l-220 207l-220 207l91 30q42 13 73 13q90 0 170 -68l407 -389l-407 -385q-88 -70 -180 -69q-29 0 -69 11.5 t-85 29.5z" />
<glyph unicode="&#xbc;" horiz-adv-x="1265" d="M92 1202v103q33 16 52.5 38.5t31.5 40.5q12 23 24.5 36.5t28.5 13.5h90v-840h-147v608h-80zM113 90l373 643l374 643q21 32 49 32q14 0 29 -7l33 -19q31 -20 30.5 -39.5t-12.5 -42.5l-747 -1286q-12 -20 -35 -28q-8 -3 -17 -3l-28 9q-4 2 -19.5 11t-21.5 13 q-20 14 -20 32q1 19 12 42zM821 336q-1 14 -1 32.5t1 41.5l101 409h137l-96 -416h88v250h135v-669h-135v284h-97q-45 0 -71.5 5.5t-43 19.5t-18.5 43z" />
<glyph unicode="&#xbd;" horiz-adv-x="1294" d="M92 1202v103q35 16 53.5 38.5t30.5 40.5q14 23 25.5 36.5t27.5 13.5h93v-840h-150v608h-80zM103 52q0 19 10 38l374 643l375 643q19 32 47 32q13 0 29 -7l39 -23q31 -20 27.5 -37.5t-15.5 -40.5l-747 -1286q-12 -20 -35 -28.5t-43 4.5q-6 4 -37 22q-24 15 -24 40z M838 -18v305l237 295v102h-155q-33 0 -57.5 36t-24.5 101h239q72 0 104.5 -31.5t32.5 -103.5v-158l-237 -295v-112h156q31 0 56 -37t25 -102h-376z" />
<glyph unicode="&#xbe;" horiz-adv-x="1269" d="M92 1202v103q33 16 52.5 38.5t31.5 40.5q12 23 24.5 36.5t28.5 13.5h90v-840h-147v608h-80zM113 90l373 643l374 643q21 32 49 32q14 0 29 -7l39 -23q31 -20 27.5 -37.5t-15.5 -40.5l-747 -1286q-12 -20 -35 -28.5t-45 6.5q-4 2 -43 26q-19 13 -19 30q1 17 13 42z M817 815h236q72 0 104.5 -31.5t32.5 -103.5v-172q0 -27 -10.5 -43t-32.5 -45q18 -14 30.5 -29.5t12.5 -44.5v-233q0 -74 -32 -106t-105 -32h-236q0 90 31 115t96 25h86q10 0 15.5 5t5.5 25v207h-156v127h156v164q2 6 1 10q0 24 -44 25h-95q-96 0 -96 137z" />
<glyph unicode="&#xbf;" horiz-adv-x="753" d="M72 223v285l305 416v196h207v-264l-308 -416v-231h289q72 0 117 -55.5t45 -153.5l-434 2q-111 0 -166 47t-55 174zM377 1268v215h207v-215h-207z" />
<glyph unicode="&#xc0;" d="M102 0v1262q0 61 11.5 104t38 68.5t68.5 37t106 11.5h196q63 0 106.5 -11.5t69 -37t36.5 -68.5t11 -104v-1262h-206v664h-230v-664h-207zM231 1681l82 195q262 -139 294 -166t32 -80q0 -33 -27 -84zM309 868h230v410h-230v-410z" />
<glyph unicode="&#xc1;" d="M102 0v1262q0 61 11.5 104t38 68.5t68.5 37t106 11.5h196q63 0 106.5 -11.5t69 -37t36.5 -68.5t11 -104v-1262h-206v664h-230v-664h-207zM211 1651q0 47 32.5 75.5t75.5 51.5q47 27 108.5 58.5l109.5 57.5l81 -194l-382 -137q-14 29 -19.5 50.5t-5.5 37.5zM309 868h230 v410h-230v-410z" />
<glyph unicode="&#xc2;" d="M102 0v1262q0 61 11.5 104t38 68.5t68.5 37t106 11.5h196q63 0 106.5 -11.5t69 -37t36.5 -68.5t11 -104v-1262h-206v664h-230v-664h-207zM125 1614q0 47 28.5 71.5t69.5 51.5h-2l215 145l215 -145h-2q41 -27 70 -51.5t29 -71.5q0 -25 -23 -86l-289 119l-145 -61l-144 -58 q-22 61 -22 86zM309 868h230v410h-230v-410z" />
<glyph unicode="&#xc3;" d="M102 0v1262q0 61 11.5 104t38 68.5t68.5 37t106 11.5h196q63 0 106.5 -11.5t69 -37t36.5 -68.5t11 -104v-1262h-206v664h-230v-664h-207zM150 1577v197l71 69q29 27 88 27h8q44 0 72 -21h-2l137 -88q23 -16 45 -16q20 0 41 18l23 23q14 14 31 29l30 26q14 12 23 19v-203 l-72 -62q-16 -16 -38.5 -23t-45.5 -7q-20 0 -41.5 7t-40.5 17l-121 76l-16 12q-20 14 -45 15q-18 0 -41 -17l-23 -21l-30 -28l-31 -28zM309 868h230v410h-230v-410z" />
<glyph unicode="&#xc4;" horiz-adv-x="778" d="M84 0v1262q0 61 11 104t38 68.5t69 37t105 11.5h197q63 0 106 -11.5t69 -37t37 -68.5t11 -104v-1262h-207v664h-229v-664h-207zM166 1593v209h196v-209h-196zM291 868h229v410h-229v-410zM471 1593v209h197v-209h-197z" />
<glyph unicode="&#xc5;" horiz-adv-x="778" d="M84 0v1262q0 61 11 104t38 68.5t69 37t105 11.5h197q63 0 106 -11.5t69 -37t37 -68.5t11 -104v-1262h-207v664h-229v-664h-207zM242 1651v116q0 74 25.5 95.5t90.5 21.5h117q66 0 89.5 -25.5t23.5 -91.5v-116q0 -66 -24.5 -91.5t-90.5 -25.5h-115q-66 0 -91 25.5 t-25 91.5zM291 868h229v410h-229v-410zM358 1653h113v112h-113v-112z" />
<glyph unicode="&#xc6;" horiz-adv-x="1175" d="M20 0l232 1266q23 117 82 167t139 50h682l-39 -205h-301v-410h266v-204h-266v-457h301l39 -207h-547v664h-256l-63 -333l-62 -331h-207zM379 868h229v410h-155z" />
<glyph unicode="&#xc7;" horiz-adv-x="778" d="M82 221v1041q0 61 11 104t38 68.5t69 37t105 11.5h420v-318h-182q-8 37 -25.5 59.5t-47.5 34t-74 15.5t-107 4v-1071h239v53q0 86 43 125t154 39v-203q0 -61 -11.5 -104t-37 -68.5t-68.5 -37t-106 -11.5h-58v-23l107 -104v-207h-363q0 66 25 100.5t55 34.5h144v29l-67 60 q-36 32 -64 61v49q-111 4 -155 53t-44 168z" />
<glyph unicode="&#xc8;" horiz-adv-x="727" d="M117 0v1483h598l-39 -205h-350v-410h284v-204h-284v-457h350l39 -207h-598zM147 1681l82 195q262 -139 294 -166t32 -80q0 -33 -27 -84z" />
<glyph unicode="&#xc9;" horiz-adv-x="655" d="M98 0v1483h598l-39 -205h-350v-410h285v-204h-285v-457h350l39 -207h-598zM158 1638q0 47 32.5 76t75.5 51q47 27 108.5 58.5t108.5 58.5l82 -194l-383 -138q-14 29 -19 50.5t-5 37.5z" />
<glyph unicode="&#xca;" horiz-adv-x="757" d="M117 1606q0 47 28.5 71.5t69.5 51.5h-2l215 145l215 -145h-2q41 -27 69.5 -51.5t28.5 -71.5q0 -25 -22 -86l-289 118l-145 -60l-144 -58q-22 61 -22 86zM137 0v1483h598l-39 -205h-350v-410h285v-204h-285v-457h350l39 -207h-598z" />
<glyph unicode="&#xcb;" horiz-adv-x="727" d="M117 0v1483h598l-39 -205h-350v-410h284v-204h-284v-457h350l39 -207h-598zM137 1587v209h197v-209h-197zM442 1587v209h197v-209h-197z" />
<glyph unicode="&#xcc;" horiz-adv-x="526" d="M109 1688l81 194q262 -139 294 -165.5t32 -80.5q0 -33 -27 -84zM182 0v1483h205v-1483h-205z" />
<glyph unicode="&#xcd;" horiz-adv-x="534" d="M55 1645q0 47 33 75.5t76 51.5q47 27 108.5 58.5l108.5 57.5l82 -194l-383 -138q-14 29 -19.5 51t-5.5 38zM137 0v1483h205v-1483h-205z" />
<glyph unicode="&#xce;" horiz-adv-x="614" d="M25 1614q0 47 28.5 71.5t69.5 51.5h-2l215 145l215 -145h-2q41 -27 69.5 -51.5t28.5 -71.5q0 -25 -22 -86l-289 119l-146 -61l-143 -58q-22 61 -22 86zM246 0v1483h205v-1483h-205z" />
<glyph unicode="&#xcf;" horiz-adv-x="518" d="M41 1599v209h197v-209h-197zM193 0v1483h204v-1483h-204zM346 1599v209h197v-209h-197z" />
<glyph unicode="&#xd0;" horiz-adv-x="835" d="M72 719v207h45v557h420q125 0 173 -48.5t48 -172.5v-1041q0 -125 -48 -173t-173 -48h-420v719h-45zM324 207h229v1069h-229v-350h178v-207h-178v-512z" />
<glyph unicode="&#xd1;" d="M84 0v1483h131q16 -12 28.5 -26.5t22.5 -31.5q39 29 91.5 47.5t97.5 18.5q86 0 145 -26.5t96 -70.5t52.5 -99.5t15.5 -112.5v-1182h-205v1145q0 70 -41 100.5t-94 30.5t-94 -34t-41 -97v-1145h-205zM143 1577v197l72 69q29 27 88 27h8q44 0 72 -21h-2l137 -88 q23 -16 45 -16q20 0 41 18l23 23l30 29l31 26q14 12 23 19v-203l-72 -62q-16 -16 -38.5 -23t-45.5 -7q-20 0 -41.5 7t-40.5 17l-121 76l-16 12q-20 14 -45 15q-18 0 -41 -17l-23 -21l-30 -28l-31 -28z" />
<glyph unicode="&#xd2;" d="M102 221v1041q0 61 11.5 104t38 68.5t68.5 37t106 11.5h196q63 0 106.5 -11.5t69 -37t36.5 -68.5t11 -104v-1041q0 -61 -11 -104t-36.5 -68.5t-68.5 -37t-107 -11.5h-196q-63 0 -105.5 11.5t-69 37t-38 68.5t-11.5 104zM209 1681l82 195q262 -139 293.5 -166t31.5 -80 q0 -33 -26 -84zM309 207h230v1071h-230v-1071z" />
<glyph unicode="&#xd3;" d="M102 221v1041q0 61 11.5 104t38 68.5t68.5 37t106 11.5h196q63 0 106.5 -11.5t69 -37t36.5 -68.5t11 -104v-1041q0 -61 -11 -104t-36.5 -68.5t-68.5 -37t-107 -11.5h-196q-63 0 -105.5 11.5t-69 37t-38 68.5t-11.5 104zM221 1638q0 47 33 76t76 51q47 27 108.5 58.5 t108.5 58.5l82 -194l-383 -138q-14 29 -19.5 50.5t-5.5 37.5zM309 207h230v1071h-230v-1071z" />
<glyph unicode="&#xd4;" d="M102 221v1041q0 61 11.5 104t38 68.5t68.5 37t106 11.5h196q63 0 106.5 -11.5t69 -37t36.5 -68.5t11 -104v-1041q0 -61 -11 -104t-36.5 -68.5t-68.5 -37t-107 -11.5h-196q-63 0 -105.5 11.5t-69 37t-38 68.5t-11.5 104zM117 1612q0 47 28.5 71.5t69.5 51.5h-2l215 145 l215 -145h-2q41 -27 69.5 -51.5t28.5 -71.5q0 -25 -22 -86l-289 119l-145 -61l-144 -58q-22 61 -22 86zM309 207h230v1071h-230v-1071z" />
<glyph unicode="&#xd5;" d="M102 221v1041q0 61 11.5 104t38 68.5t68.5 37t106 11.5h196q63 0 106.5 -11.5t69 -37t36.5 -68.5t11 -104v-1041q0 -61 -11 -104t-36.5 -68.5t-68.5 -37t-107 -11.5h-196q-63 0 -105.5 11.5t-69 37t-38 68.5t-11.5 104zM139 1577v197l72 69q29 27 88 27h8q44 0 72 -21h-2 l137 -88q23 -16 45 -16q20 0 41 18l23 23l30 29l31 26q14 12 23 19v-203l-72 -62q-16 -16 -39 -23t-45 -7q-20 0 -42 7t-40 17l-121 76l-16 12q-20 14 -45 15q-18 0 -41 -17l-23 -21l-30 -28l-31 -28zM309 207h230v1071h-230v-1071z" />
<glyph unicode="&#xd6;" horiz-adv-x="778" d="M84 221v1041q0 61 11 104t38 68.5t69 37t105 11.5h197q63 0 106 -11.5t69 -37t37 -68.5t11 -104v-1041q0 -61 -11 -104t-37 -68.5t-69 -37t-106 -11.5h-197q-63 0 -105 11.5t-69 37t-38 68.5t-11 104zM150 1593v209h196v-209h-196zM291 207h229v1071h-229v-1071z M455 1593v209h196v-209h-196z" />
<glyph unicode="&#xd7;" d="M92 770q162 119 164 121l174 -240l174 240l164 -123l-209 -291l209 -282l-166 -125l-172 233l-170 -235l-168 127l209 282q-205 287 -209 293z" />
<glyph unicode="&#xd8;" horiz-adv-x="827" d="M82 -68l53 172q-16 43 -16 117v1041q0 61 11 104t38 68.5t69 37t105 11.5h229q4 16 10 33l9 28h196l-47 -151q23 -55 23 -131v-1041q0 -125 -49 -173t-174 -48h-238l-18 -68h-201zM326 705l180 573h-180v-573zM365 207h190v600l-94 -297z" />
<glyph unicode="&#xd9;" horiz-adv-x="860" d="M102 301v1184h205v-1147q0 -70 41 -100.5t94.5 -30.5t94.5 33.5t41 97.5v1147h204v-1485h-131q-16 12 -28.5 27.5t-22.5 29.5q-39 -29 -90 -46t-98 -17q-86 0 -145.5 26.5t-96.5 70.5t-52.5 99.5t-15.5 110.5zM215 1681l82 195q262 -139 294 -166t32 -80q0 -33 -27 -84z " />
<glyph unicode="&#xda;" horiz-adv-x="860" d="M102 301v1184h205v-1147q0 -70 41 -100.5t94.5 -30.5t94.5 33.5t41 97.5v1147h204v-1485h-131q-16 12 -28.5 27.5t-22.5 29.5q-39 -29 -90 -46t-98 -17q-86 0 -145.5 26.5t-96.5 70.5t-52.5 99.5t-15.5 110.5zM240 1638q0 47 32.5 76t75.5 51q47 27 108.5 58.5 t108.5 58.5l82 -194l-383 -138q-14 29 -19 50.5t-5 37.5z" />
<glyph unicode="&#xdb;" horiz-adv-x="860" d="M102 301v1184h205v-1147q0 -70 41 -100.5t94.5 -30.5t94.5 33.5t41 97.5v1147h204v-1485h-131q-16 12 -28.5 27.5t-22.5 29.5q-39 -29 -90 -46t-98 -17q-86 0 -145.5 26.5t-96.5 70.5t-52.5 99.5t-15.5 110.5zM129 1610q0 47 28.5 71.5t69.5 51.5h-2l215 145l215 -145h-2 q41 -27 70 -51.5t29 -71.5q0 -25 -23 -86l-289 118l-145 -60l-143 -58q-23 61 -23 86z" />
<glyph unicode="&#xdc;" d="M84 301v1184h205v-1147q0 -70 41 -100.5t94 -30.5t94 33.5t41 97.5v1147h205v-1485h-131q-16 12 -28.5 27.5t-22.5 29.5q-39 -29 -90.5 -46t-98.5 -17q-86 0 -145.5 26.5t-96 70.5t-52 99.5t-15.5 110.5zM156 1593v209h196v-209h-196zM461 1593v209h196v-209h-196z" />
<glyph unicode="&#xdd;" horiz-adv-x="835" d="M49 1483h207l184 -541l181 541h206l-284 -789v-694h-207v694l-145 395zM213 1636q0 47 33 76t76 51q47 27 108.5 58.5t108.5 58.5l82 -194l-383 -138q-14 29 -19.5 50.5t-5.5 37.5z" />
<glyph unicode="&#xde;" horiz-adv-x="811" d="M98 0v1405h207v-328q37 20 94.5 34.5t122.5 14.5q123 0 171 -57t48 -176v-332q0 -123 -50 -173t-173 -50h-213v-338h-207zM305 545h230v368h-91q-53 0 -96 -31.5t-43 -101.5v-235z" />
<glyph unicode="&#xdf;" horiz-adv-x="901" d="M61 45l148 197v1024q0 125 48 171t173 46h199q125 0 173 -48.5t48 -172.5v-318q0 -33 -12.5 -73t-102.5 -99l60 -41q23 -18 39 -39.5t16 -68.5v-402q0 -63 -11.5 -105t-37 -67.5t-68.5 -37t-104 -11.5h-154v207h170v418l-59 39h-170v-496l-180 -264zM416 868h170l59 41 v369h-229v-410z" />
<glyph unicode="&#xe0;" horiz-adv-x="778" d="M86 221v199q0 61 11.5 104t38 68.5t68.5 37t105 11.5h213v190h-194q-70 0 -116 54.5t-46 152.5h340q223 0 223 -223v-815h-158q-12 14 -16 26l-10 27q-35 -20 -99.5 -39.5t-136.5 -19.5q-123 0 -173 55t-50 172zM188 1212l82 195q262 -139 294 -166t32 -80q0 -33 -27 -84 zM293 207h94q51 0 93 26.5t42 88.5v110h-229v-225z" />
<glyph unicode="&#xe1;" horiz-adv-x="778" d="M84 221v199q0 61 11 104t38 68.5t69 37t105 11.5h213v190h-194q-70 0 -116 54.5t-46 152.5h340q223 0 223 -223v-815h-158q-12 14 -16 26l-10 27q-35 -20 -99.5 -39.5t-136.5 -19.5q-123 0 -173 55t-50 172zM233 1157q0 47 33 76t76 51q47 27 108.5 58.5t108.5 58.5 l82 -195l-383 -137q-14 29 -19.5 50.5t-5.5 37.5zM291 207h94q51 0 93 26.5t42 88.5v110h-229v-225z" />
<glyph unicode="&#xe2;" horiz-adv-x="782" d="M84 221v199q0 61 11 104t38 68.5t69 37t105 11.5h213v190h-194q-70 0 -116 54.5t-46 152.5h340q223 0 223 -223v-815h-158q-12 14 -16 26l-10 27q-35 -20 -99.5 -39.5t-136.5 -19.5q-123 0 -173 55t-50 172zM102 1153q0 47 29 71.5t70 51.5h-2l215 145l215 -145h-2 q41 -27 69.5 -51.5t28.5 -71.5q0 -25 -23 -86l-288 119l-146 -61l-143 -58q-23 61 -23 86zM291 207h94q51 0 93 26.5t42 88.5v110h-229v-225z" />
<glyph unicode="&#xe3;" horiz-adv-x="778" d="M84 221v199q0 61 11 104t38 68.5t69 37t105 11.5h213v190h-194q-70 0 -116 54.5t-46 152.5h340q223 0 223 -223v-815h-158q-12 14 -16 26l-10 27q-35 -20 -99.5 -39.5t-136.5 -19.5q-123 0 -173 55t-50 172zM164 1120v197l72 69q29 27 88 27h8q44 0 71 -20h-2l138 -88 q23 -16 45 -17q20 0 41 19l22 22q14 14 31 29l31 26l22 19v-203l-72 -61q-16 -16 -38.5 -23.5t-45.5 -7.5q-20 0 -41.5 7t-39.5 18l-121 75l-17 13q-20 14 -45 14q-18 0 -41 -16l-22 -22l-31 -28l-31 -27zM291 207h94q51 0 93 26.5t42 88.5v110h-229v-225z" />
<glyph unicode="&#xe4;" horiz-adv-x="778" d="M84 221v199q0 61 11 104t38 68.5t69 37t105 11.5h213v190h-194q-70 0 -116 54.5t-46 152.5h340q223 0 223 -223v-815h-158q-12 14 -16 26l-10 27q-35 -20 -99.5 -39.5t-136.5 -19.5q-123 0 -173 55t-50 172zM168 1071v209h197v-209h-197zM291 207h94q51 0 93 26.5 t42 88.5v110h-229v-225zM473 1071v209h197v-209h-197z" />
<glyph unicode="&#xe5;" horiz-adv-x="778" d="M84 221v199q0 61 11 104t38 68.5t69 37t105 11.5h213v190h-194q-70 0 -116 54.5t-46 152.5h340q223 0 223 -223v-815h-158q-12 14 -16 26l-10 27q-35 -20 -99.5 -39.5t-136.5 -19.5q-123 0 -173 55t-50 172zM256 1208v117q0 74 25.5 95.5t91.5 21.5h116q66 0 89.5 -25.5 t23.5 -91.5v-117q0 -66 -24.5 -91t-90.5 -25h-114q-66 0 -91.5 25t-25.5 91zM291 207h94q51 0 93 26.5t42 88.5v110h-229v-225zM373 1210h112v113h-112v-113z" />
<glyph unicode="&#xe6;" horiz-adv-x="1228" d="M82 221v199q0 125 48 173t173 48h215v190h-194q-70 0 -116 54.5t-46 152.5h340q29 0 58.5 -7t53.5 -17q49 25 125 24h199q119 0 170 -50t51 -173v-360h-436v-248h229q2 80 48 119q42 35 138 35q10 0 21 -1v-139q0 -119 -51 -170t-170 -51h-371q-12 12 -18 22.5t-10 24.5 q-35 -20 -99.5 -36.5t-136.5 -16.5q-119 0 -170 55t-51 172zM289 207h94q51 0 93 26.5t42 88.5v110h-229v-225zM723 651h229v178h-229v-178z" />
<glyph unicode="&#xe7;" horiz-adv-x="778" d="M82 221v594q0 123 50 173t173 50h420v-315h-182q-16 70 -74.5 89t-179.5 19v-624h229v53q0 86 45 126q41 36 141 36h21v-201q0 -119 -50 -170t-173 -51h-58v-25l54 -50l53 -52v-207h-363q0 66 25 101.5t55 35.5h72q23 0 34 -1t38 -1v31l-66 59q-35 31 -63 60l-2 49 q-100 8 -149.5 59t-49.5 162z" />
<glyph unicode="&#xe8;" horiz-adv-x="778" d="M84 221v594q0 123 50 173t173 50h197q123 0 173 -50t50 -173v-360h-436v-248h229q2 78 39 115.5t135 37.5h33v-139q0 -119 -50 -170t-173 -51h-197q-100 0 -161.5 51t-61.5 170zM182 1206l82 195q262 -139 294 -166t32 -80q0 -33 -27 -84zM291 651h229v178h-229v-178z " />
<glyph unicode="&#xe9;" horiz-adv-x="778" d="M84 221v594q0 123 50 173t173 50h197q123 0 173 -50t50 -173v-360h-436v-248h229q2 78 39 115.5t135 37.5h33v-139q0 -119 -50 -170t-173 -51h-197q-100 0 -161.5 51t-61.5 170zM182 1157q0 47 33 76t76 51q47 27 108.5 58.5t108.5 58.5l82 -195l-383 -137 q-14 29 -19.5 50.5t-5.5 37.5zM291 651h229v178h-229v-178z" />
<glyph unicode="&#xea;" horiz-adv-x="778" d="M94 221v594q0 123 50.5 173t172.5 50h197q123 0 173 -50t50 -173v-360h-436v-248h229q2 78 39 115.5t136 37.5h32v-139q0 -119 -50 -170t-173 -51h-197q-100 0 -161.5 51t-61.5 170zM96 1153q0 47 29 71.5t70 51.5h-2l215 145l215 -145h-2q41 -27 69.5 -51.5t28.5 -71.5 q0 -25 -23 -86l-288 119l-146 -61l-143 -58q-23 61 -23 86zM301 651h229v178h-229v-178z" />
<glyph unicode="&#xeb;" horiz-adv-x="778" d="M84 221v594q0 123 50 173t173 50h197q123 0 173 -50t50 -173v-360h-436v-248h229q2 78 39 115.5t135 37.5h33v-139q0 -119 -50 -170t-173 -51h-197q-100 0 -161.5 51t-61.5 170zM152 1069v209h196v-209h-196zM291 651h229v178h-229v-178zM457 1069v209h196v-209h-196z " />
<glyph unicode="&#xec;" horiz-adv-x="485" d="M90 1208l82 195q262 -139 294 -166t32 -80q0 -33 -27 -84zM197 0v1038h204v-1038h-204z" />
<glyph unicode="&#xed;" horiz-adv-x="485" d="M31 1151q0 47 32.5 75.5t75.5 51.5q47 27 108.5 58.5t108.5 58.5l82 -195l-383 -137q-14 29 -19 50.5t-5 37.5zM131 0v1038h205v-1038h-205z" />
<glyph unicode="&#xee;" horiz-adv-x="614" d="M25 1157q0 47 28.5 71.5t69.5 51.5h-2l215 145l215 -145h-2q41 -27 69.5 -51.5t28.5 -71.5q0 -25 -22 -86l-289 119l-146 -61l-143 -58q-22 61 -22 86zM231 0v1038h205v-1038h-205z" />
<glyph unicode="&#xef;" horiz-adv-x="518" d="M41 1081v209h197v-209h-197zM195 0v1038h204v-1038h-204zM346 1081v209h197v-209h-197z" />
<glyph unicode="&#xf0;" horiz-adv-x="970" d="M98 221v422q0 125 49.5 174t174.5 49h213v129q-57 -25 -109 -51q-20 -4 -38.5 -7t-39.5 -3q-41 0 -71.5 24.5t-55.5 92.5l314 157v6h-195q-70 0 -116 53.5t-46 151.5h340q160 0 205 -116l97 50l95 48l80 -189l-254 -120v-1092h-157l-16 23q-7 10 -11 24 q-35 -20 -99.5 -36.5t-135.5 -16.5q-123 0 -173.5 55t-50.5 172zM305 207h94q51 0 93.5 26.5t42.5 88.5v333h-230v-448z" />
<glyph unicode="&#xf1;" horiz-adv-x="778" d="M84 0v1038h133q16 -12 27.5 -28.5t21.5 -32.5q39 29 90.5 48t98.5 19q86 0 145 -26.5t96 -70.5t52.5 -99t15.5 -111v-737h-205v698q0 72 -41 102.5t-94 30.5t-94 -33.5t-41 -99.5v-698h-205zM145 1120v197l72 69q29 27 88 27h8q44 0 72 -20h-2l137 -88q23 -16 45 -17 q20 0 41 19l23 22l30 29l31 26q14 12 23 19v-203l-72 -61q-16 -16 -38.5 -23.5t-45.5 -7.5q-20 0 -41.5 7t-40.5 18l-121 75l-16 13q-20 14 -45 14q-18 0 -41 -16l-23 -22l-30 -28l-31 -27z" />
<glyph unicode="&#xf2;" horiz-adv-x="778" d="M84 221v594q0 123 50 173t173 50h197q123 0 173 -50t50 -173v-594q0 -119 -50 -170t-173 -51h-197q-123 0 -173 51t-50 170zM166 1208l82 195q262 -139 293.5 -166t31.5 -80q0 -33 -26 -84zM291 207h229v624h-229v-624z" />
<glyph unicode="&#xf3;" horiz-adv-x="737" d="M84 221v594q0 123 50 173t173 50h197q123 0 173 -50t50 -173v-594q0 -119 -50 -170t-173 -51h-197q-123 0 -173 51t-50 170zM207 1151q0 47 32.5 75.5t75.5 51.5q47 27 108.5 58.5t108.5 58.5l82 -195l-383 -137q-14 29 -19 50.5t-5 37.5zM291 207h229v624h-229v-624z " />
<glyph unicode="&#xf4;" horiz-adv-x="778" d="M86 221v594q0 123 50 173t173 50h197q123 0 173 -50t50 -173v-594q0 -119 -50 -170t-173 -51h-197q-123 0 -173 51t-50 170zM96 1153q0 47 29 71.5t70 51.5h-2l215 145l215 -145h-2q41 -27 69.5 -51.5t28.5 -71.5q0 -25 -23 -86l-288 119l-146 -61l-143 -58 q-23 61 -23 86zM293 207h229v624h-229v-624z" />
<glyph unicode="&#xf5;" horiz-adv-x="778" d="M84 221v594q0 123 50 173t173 50h197q123 0 173 -50t50 -173v-594q0 -119 -50 -170t-173 -51h-197q-123 0 -173 51t-50 170zM123 1120v197l72 69q29 27 88 27h8q44 0 71 -20h-2l138 -88q23 -16 45 -17q20 0 41 19l22 22q14 14 31 29l31 26l22 19v-203l-72 -61 q-16 -16 -38.5 -23.5t-44.5 -7.5q-20 0 -42 7t-40 18l-121 75l-17 13q-20 14 -45 14q-18 0 -41 -16l-22 -22l-31 -28l-31 -27zM291 207h229v624h-229v-624z" />
<glyph unicode="&#xf6;" horiz-adv-x="778" d="M84 221v594q0 123 50 173t173 50h197q123 0 173 -50t50 -173v-594q0 -119 -50 -170t-173 -51h-197q-123 0 -173 51t-50 170zM156 1077v209h196v-209h-196zM291 207h229v624h-229v-624zM461 1077v209h196v-209h-196z" />
<glyph unicode="&#xf7;" horiz-adv-x="813" d="M41 477v180h756v-178h-312zM307 299q0 18 11.5 38.5t27.5 37t38 28t40 11.5t38.5 -11.5t37 -28t28 -37t11.5 -38.5t-11.5 -39.5t-28 -38t-37 -28t-38.5 -11.5t-38.5 11.5t-38 29t-29 38t-11.5 38.5zM307 829.5q0 18.5 11.5 39t27.5 37t38 27.5t40 11t38.5 -11t37 -27.5 t28 -37t11.5 -39t-11.5 -40t-28 -38t-37 -27.5t-38.5 -11t-38.5 11t-38 28.5t-29 38t-11.5 39z" />
<glyph unicode="&#xf9;" d="M84 301v737h205v-700q0 -70 41 -100.5t94 -30.5t94 33.5t41 97.5v700h205v-1038h-150q-14 16 -21 30l-11 21q-41 -25 -92.5 -42t-96.5 -17q-86 0 -145.5 26.5t-96 70.5t-52 99.5t-15.5 112.5zM215 1206l82 195q262 -139 294 -166t32 -80q0 -33 -27 -84z" />
<glyph unicode="&#xfa;" d="M84 301v737h205v-700q0 -70 41 -100.5t94 -30.5t94 33.5t41 97.5v700h205v-1038h-150q-14 16 -21 30l-11 21q-41 -25 -92.5 -42t-96.5 -17q-86 0 -145.5 26.5t-96 70.5t-52 99.5t-15.5 112.5zM221 1157q0 47 33 76t76 51q47 27 108.5 58.5t108.5 58.5l82 -195l-383 -137 q-14 29 -19.5 50.5t-5.5 37.5z" />
<glyph unicode="&#xfb;" d="M84 301v737h205v-700q0 -70 41 -100.5t94 -30.5t94 33.5t41 97.5v700h205v-1038h-150q-14 16 -21 30l-11 21q-41 -25 -92.5 -42t-96.5 -17q-86 0 -145.5 26.5t-96 70.5t-52 99.5t-15.5 112.5zM104 1151q0 47 29 71.5t70 51.5h-2l215 145l215 -145h-2q41 -27 69.5 -51.5 t28.5 -71.5q0 -25 -22 -86l-289 119l-146 -61l-143 -58q-23 61 -23 86z" />
<glyph unicode="&#xfc;" d="M84 301v737h205v-700q0 -70 41 -100.5t94 -30.5t94 33.5t41 97.5v700h205v-1038h-150q-14 16 -21 30l-11 21q-41 -25 -92.5 -42t-96.5 -17q-86 0 -145.5 26.5t-96 70.5t-52 99.5t-15.5 112.5zM174 1083v209h197v-209h-197zM479 1083v209h197v-209h-197z" />
<glyph unicode="&#xfd;" d="M47 1038h211l178 -682l182 682h195l-375 -1411l-180 56l82 317zM211 1163q0 47 32.5 76t75.5 51q47 27 108.5 58.5t109.5 58.5l81 -195l-382 -137q-14 29 -19.5 50.5t-5.5 37.5z" />
<glyph unicode="&#xfe;" horiz-adv-x="813" d="M98 1483h209v-488q37 20 94.5 34.5t122.5 14.5q123 0 171 -55t48 -178v-590q0 -119 -50 -170t-173 -51h-213v-338h-207zM307 207h230v624h-91q-53 0 -96 -30.5t-43 -102.5v-491z" />
<glyph unicode="&#xff;" horiz-adv-x="802" d="M39 1038h211l178 -682l182 682h195l-375 -1411l-180 56l82 317zM172 1081v209h197v-209h-197zM477 1081v209h197v-209h-197z" />
<glyph unicode="&#x131;" horiz-adv-x="307" d="M72 0v1038h204v-1038h-204z" />
<glyph unicode="&#x152;" horiz-adv-x="1134" d="M102 221v1041q0 61 11.5 104t38 68.5t68.5 37t106 11.5h759l-41 -205h-301v-410h267v-204h-267v-457h301l41 -207h-759q-63 0 -105.5 11.5t-69 37t-38 68.5t-11.5 104zM309 207h228v1071h-228v-1071z" />
<glyph unicode="&#x153;" horiz-adv-x="1261" d="M98 221v594q0 123 51.5 173t169.5 50h199q70 0 119 -20q49 20 119 20h198q119 0 170.5 -50t51.5 -173v-360h-437v-248h230q2 80 48 119q42 35 138 35q10 0 21 -1v-139q0 -119 -51.5 -170t-170.5 -51h-198q-63 0 -115 23q-49 -23 -123 -23h-199q-119 0 -170 51t-51 170z M305 207h230v624h-230v-624zM739 651h230v178h-230v-178z" />
<glyph unicode="&#x178;" d="M41 1483h207l184 -541l180 541h207l-284 -789v-694h-207v694l-145 395zM174 1606v209h197v-209h-197zM479 1606v209h197v-209h-197z" />
<glyph unicode="&#x2c6;" horiz-adv-x="512" d="M-41 1251q0 47 28.5 72t69.5 51h-2l215 146l215 -146h-2q41 -27 70 -51.5t29 -71.5q0 -25 -23 -86l-289 119l-145 -60l-143 -59q-23 61 -23 86z" />
<glyph unicode="&#x2da;" horiz-adv-x="452" d="M72 1243v117q0 74 25.5 95.5t90.5 21.5h117q66 0 89.5 -26t23.5 -91v-117q0 -66 -24.5 -91.5t-90.5 -25.5h-115q-66 0 -91 25.5t-25 91.5zM188 1245h113v113h-113v-113z" />
<glyph unicode="&#x2dc;" horiz-adv-x="538" d="M0 1120v197l72 69q29 27 88 27h8q44 0 72 -20h-2l137 -88q23 -16 45 -17q20 0 41 19l22 22q14 14 31 29l31 26l22 19v-203l-71 -61q-16 -16 -39 -23.5t-45 -7.5q-20 0 -42 7t-40 18l-121 75l-16 13q-20 14 -46 14q-18 0 -41 -16l-22 -22l-31 -28l-30 -27z" />
<glyph unicode="&#x2000;" horiz-adv-x="946" />
<glyph unicode="&#x2001;" horiz-adv-x="1894" />
<glyph unicode="&#x2002;" horiz-adv-x="946" />
<glyph unicode="&#x2003;" horiz-adv-x="1894" />
<glyph unicode="&#x2004;" horiz-adv-x="630" />
<glyph unicode="&#x2005;" horiz-adv-x="473" />
<glyph unicode="&#x2006;" horiz-adv-x="315" />
<glyph unicode="&#x2007;" horiz-adv-x="315" />
<glyph unicode="&#x2008;" horiz-adv-x="235" />
<glyph unicode="&#x2009;" horiz-adv-x="378" />
<glyph unicode="&#x200a;" horiz-adv-x="104" />
<glyph unicode="&#x2010;" horiz-adv-x="765" d="M61 502v205h668v-207z" />
<glyph unicode="&#x2011;" horiz-adv-x="765" d="M61 502v205h668v-207z" />
<glyph unicode="&#x2012;" horiz-adv-x="765" d="M61 502v205h668v-207z" />
<glyph unicode="&#x2013;" horiz-adv-x="1126" d="M51 502v198h1036v-198h-1036z" />
<glyph unicode="&#x2014;" horiz-adv-x="2007" d="M51 498v202h1888v-202h-1888z" />
<glyph unicode="&#x2018;" horiz-adv-x="374" d="M92 1120v164l45 107q12 27 25.5 47t28 33.5t33 19.5t42.5 6h86l-53 -219v-158h-207z" />
<glyph unicode="&#x2019;" horiz-adv-x="395" d="M72 1120l75 219v158h207v-168l-63 -104q-31 -47 -56.5 -76t-74.5 -29h-88z" />
<glyph unicode="&#x201a;" horiz-adv-x="374" d="M51 -135l76 219v137h207v-147l-64 -105q-31 -47 -56.5 -75.5t-74.5 -28.5h-88z" />
<glyph unicode="&#x201c;" horiz-adv-x="673" d="M92 1120v168l64 105q29 49 54.5 76.5t74.5 27.5h88l-76 -217v-160h-205zM360 1120v168l64 105q29 49 55.5 76.5t75.5 27.5h86l-74 -217v-160h-207z" />
<glyph unicode="&#x201d;" horiz-adv-x="673" d="M72 1120l73 219v158h207v-168l-63 -104q-29 -47 -55.5 -76t-75.5 -29h-86zM340 1120l76 219v158h205v-168l-64 -104q-29 -47 -54.5 -76t-74.5 -29h-88z" />
<glyph unicode="&#x201e;" horiz-adv-x="653" d="M51 -135l74 219v137h207v-147l-64 -105q-29 -47 -55.5 -75.5t-75.5 -28.5h-86zM319 -135l76 219v137h205v-147l-63 -105q-29 -47 -54.5 -75.5t-74.5 -28.5h-89z" />
<glyph unicode="&#x2022;" horiz-adv-x="665" d="M61 279v573h572v-573h-572z" />
<glyph unicode="&#x2026;" horiz-adv-x="1372" d="M102 2v215h205v-215h-205zM588 2v215h205v-215h-205zM1073 2v215h205v-215h-205z" />
<glyph unicode="&#x202f;" horiz-adv-x="378" />
<glyph unicode="&#x2039;" horiz-adv-x="849" d="M82 741l405 389q41 35 85 51.5t87 16.5q31 0 73 -13l91 -30l-442 -414l222 -206l220 -207q-45 -18 -86 -29.5t-69 -11.5q-92 0 -181 69z" />
<glyph unicode="&#x203a;" horiz-adv-x="849" d="M82 328l442 413l-222 207l-220 207l91 30q42 13 73 13q43 0 87 -16.5t85 -51.5l407 -389l-407 -385q-88 -70 -180 -69q-29 0 -70 11.5t-86 29.5z" />
<glyph unicode="&#x205f;" horiz-adv-x="473" />
<glyph unicode="&#x20ac;" horiz-adv-x="870" d="M61 539v206h109v70h-109v207h109v240q0 125 49 173t174 48h420v-318h-182q-8 37 -25.5 59.5t-47.5 34t-74 15.5t-107 4v-256h219v-207h-219v-70h219v-206h-219v-332h239v53q0 86 43 125t154 39v-203q0 -61 -11 -104t-37 -68.5t-69 -37t-106 -11.5h-197q-125 0 -174 48 t-49 173v318h-109z" />
<glyph unicode="&#x2122;" horiz-adv-x="1228" d="M51 1348v139h400v-139h-132v-736h-139v736h-129zM520 612v875h92q18 -12 27 -27q47 31 100 31q47 -2 80 -14.5t55 -34.5q53 49 130 49q53 0 87.5 -16.5t56 -43t30 -60.5t8.5 -68v-691h-137v670q0 35 -18.5 49.5t-43.5 14.5q-27 0 -45 -16.5t-18 -47.5v-670h-140v670 q0 35 -18 49.5t-45 14.5q-25 0 -44.5 -16.5t-19.5 -47.5v-670h-137z" />
<glyph unicode="&#xe000;" horiz-adv-x="1040" d="M0 1040h1040v-1040h-1040v1040z" />
<glyph unicode="&#xfb01;" horiz-adv-x="808" d="M72 831v207h137v224q0 119 50 170t173 51h320v-248h-205v45h-131v-242h336v-1038h-205v831h-131v-831h-207v831h-137z" />
<glyph unicode="&#xfb02;" horiz-adv-x="854" d="M72 831v207h139v224q0 119 51 170t170 51h375v-1483h-207v1280h-184v-242h172q0 -117 -38 -162t-93 -45h-41v-831h-205v831h-139z" />
<glyph unicode="&#xfb03;" horiz-adv-x="1564" d="M49 831v207h139v224q0 119 51.5 170t170.5 51h258q0 -43 -14.5 -80t-37 -64.5t-51 -43t-59.5 -15.5h-113v-242h199q0 -117 -38 -162t-95 -45h-66v-831h-205v831h-139zM657 831v207h140v224q0 119 51 170t170 51h258q0 -43 -14.5 -80t-37 -64.5t-51 -43t-59.5 -15.5h-113 v-242h199q0 -117 -38 -162t-95 -45h-66v-831h-204v831h-140zM1309 0v1038h204v-1038h-204zM1309 1249v236h204v-236h-204z" />
<glyph unicode="&#xfb04;" horiz-adv-x="1576" d="M49 831v207h139v224q0 119 51.5 170t170.5 51h258q0 -43 -14.5 -80t-37 -64.5t-51 -43t-59.5 -15.5h-113v-242h199q0 -117 -38 -162t-95 -45h-66v-831h-205v831h-139zM657 831v207h140v224q0 119 51 170t170 51h258q0 -43 -14.5 -80t-37 -64.5t-51 -43t-59.5 -15.5h-113 v-242h199q0 -117 -38 -162t-95 -45h-66v-831h-204v831h-140zM1315 0v1419q0 25 17.5 48.5t46 42t65.5 29.5t76 11v-1550h-205z" />
</font>
</defs>
</svg>
