<?xml version="1.0" standalone="no"?>
<!DOCTYPE svg PUBLIC "-//W3C//DTD SVG 1.1//EN" "http://www.w3.org/Graphics/SVG/1.1/DTD/svg11.dtd" >
<svg xmlns="http://www.w3.org/2000/svg">
<metadata>
This is a custom SVG webfont generated by Font Squirrel.
Copyright   : Copyright c Christopher RisdonPuckertype 2005 All rights reserved
Designer    : Christopher Risdon
Foundry     : Christopher RisdonPuckertype
Foundry URL : httpwwwt26com
</metadata>
<defs>
<font id="CheekPTRegularObliqueRegular" horiz-adv-x="819" >
<font-face units-per-em="2048" ascent="1638" descent="-410" />
<missing-glyph horiz-adv-x="409" />
<glyph unicode=" "  horiz-adv-x="409" />
<glyph unicode="&#x09;" horiz-adv-x="409" />
<glyph unicode="&#xa0;" horiz-adv-x="409" />
<glyph unicode="!" horiz-adv-x="368" d="M117 2l30 148h140l-31 -148h-139zM225 418l176 1005q27 29 69 54.5t110 29.5l-261 -1089h-94z" />
<glyph unicode="&#x22;" horiz-adv-x="571" d="M338 1157l53 348h137q-80 -268 -104.5 -306t-85.5 -42zM621 1157l53 348h137q-80 -268 -104.5 -306t-85.5 -42z" />
<glyph unicode="#" horiz-adv-x="1421" d="M143 360l41 138h310l98 299h-316l43 135h316l123 375h137l-121 -375h313l121 375h140l-123 -373h327l-43 -137h-327l-99 -299h334l-41 -138h-336l-116 -360h-140l119 360h-313l-117 -360h-141l121 360h-310zM631 498h313l100 299h-313z" />
<glyph unicode="$" horiz-adv-x="804" d="M131 113q0 16 33 172q63 0 90 -18.5t27 -51.5q0 -12 -17 -88h117l121 584h-49q-88 0 -127 23.5t-39 86.5q0 29 10 80l82 391q23 109 75 152t160 43h50l43 209h94l-43 -209h65q86 0 125 -23.5t39 -87.5l-35 -174q-113 9 -113 73q0 10 3 21l12 62h-123l-108 -524h65 q90 0 129 -18.5t39 -78.5q0 -6 -2 -20.5t-12 -67.5l-32 -159l-60 -295q-23 -111 -74 -153t-162 -42h-65l-43 -209h-95l43 209h-59q-88 0 -126 25t-38 88zM412 834h116l109 524h-117zM475 127h133l121 584h-133z" />
<glyph unicode="%" horiz-adv-x="1261" d="M201 20q0 8 4 13l1073 1360q12 14 22 14q6 0 11 -2l24 -19q8 -8 8 -18q0 -6 -6 -14l-1069 -1358q-12 -16 -22 -16q-8 2 -15 6l-22 16q-8 8 -8 18zM262 807q0 8 1 16t3 19l101 479q12 55 41.5 79.5t85.5 24.5h108q86 0 86 -65v-19q0 -10 -4 -20l-100 -479q-10 -53 -40 -79 t-85 -26h-109q-88 0 -88 70zM334 815h168l110 533h-168zM877 82q0 8 1 17.5t3 19.5l100 479q10 55 40 79.5t85 24.5h108q88 0 89 -69q0 -8 -1.5 -16.5t-3.5 -18.5l-100 -479q-10 -55 -41 -80t-86 -25h-108q-86 0 -86 68zM952 92h164l111 533h-164z" />
<glyph unicode="&#x26;" horiz-adv-x="1054" d="M135 131q0 31 6 64l101 489q8 29 26 47l50 50q32 32 32 55q0 10 -23 53q-20 37 -20 76v14q0 2 1 8t50 252q23 104 75 149.5t159 45.5h371q-4 -137 -146 -138h-170q-92 0 -126 -33.5t-42 -97.5l-59 -293h287l-27 -118h-287l-114 -549q0 -41 21.5 -51.5t55.5 -10.5h355 l63 312h-98l29 139h403q-2 -84 -54.5 -111.5t-84.5 -27.5h-56l-92 -455h-526q-82 4 -121 34.5t-39 96.5z" />
<glyph unicode="'" horiz-adv-x="286" d="M338 1157l51 348h139q-78 -242 -97 -279.5t-40.5 -52t-52.5 -16.5z" />
<glyph unicode="(" horiz-adv-x="573" d="M106 -72q0 27 7 58l313 1515q12 59 43 102.5t81 79t122.5 65.5t171.5 60l10 -39q2 -4 2 -14q0 -27 -25.5 -44t-54.5 -34q-80 -29 -117.5 -54.5t-59 -57t-31.5 -68.5l-19 -82q-291 -1401 -295 -1426.5t-4 -47.5q0 -57 31.5 -86t70.5 -44.5t59.5 -32t20.5 -38.5 q0 -14 -33 -62q-74 27 -129 52.5t-91 55.5t-54.5 63.5t-18.5 78.5z" />
<glyph unicode=")" horiz-adv-x="573" d="M31 -274q0 31 32.5 54t59.5 32l59 18q45 16 72 38.5t42 51.5t24.5 67t159 751.5t155.5 745.5t6 60q0 39 -16.5 66.5t-63.5 44.5l-51 18q-25 12 -43 26.5t-18 37.5q0 14 14 37.5t24 33.5q152 -53 222.5 -106t70.5 -141q0 -29 -6 -60l-313 -1515q-12 -59 -42 -103.5 t-80 -79t-123 -64.5t-173 -61q-8 29 -10 37z" />
<glyph unicode="*" horiz-adv-x="892" d="M283 1022l10 49l317 -6l-178 201q-8 14 8 30l49 37l160 -239l53 303q2 20 25 20h51l-76 -319l237.5 210t22 15t13.5 -6l31 -39l-279 -213l299 8q23 0 21 -20l-11 -49l-319 6l176 -201q2 -14 -6 -29q-10 -10 -43 -35l-164 236l-42 -231l-13 -70q-4 -23 -23 -23h-53l76 322 l-246 -219l-8 -4q-4 -2 -8.5 -2t-10.5 6q-8 10 -24 35l272 215l-297 -6q-22 0 -22 12z" />
<glyph unicode="+" horiz-adv-x="813" d="M156 504l22 108h297l66 316q2 10 10 15t16 5h95l-70 -334h303l-23 -108h-303l-61 -295q-2 -20 -25 -21h-96l66 314h-297z" />
<glyph unicode="," horiz-adv-x="374" d="M53 -141l101 180l24 117h137l-22 -107l-69 -83q-48 -58 -74.5 -82.5t-61.5 -24.5h-35z" />
<glyph unicode="-" horiz-adv-x="765" d="M186 590l29 137h627l-29 -137h-627z" />
<glyph unicode="." horiz-adv-x="307" d="M76 2l30 148h140l-31 -148h-139z" />
<glyph unicode="/" horiz-adv-x="692" d="M57 0l760 1507h137l-766 -1507h-131z" />
<glyph unicode="0" horiz-adv-x="776" d="M135 123q0 16 2 33.5t6 38.5l217 1044q23 104 66 149.5t147 45.5h207q86 0 125 -29t39 -94q0 -16 -2 -33.5t-6 -38.5l-217 -1044q-23 -104 -67 -149.5t-148 -45.5h-207q-86 0 -124 28.5t-38 94.5zM270 137h297l242 1159h-297z" />
<glyph unicode="1" horiz-adv-x="452" d="M213 0l238 1139h-117l18 92q51 29 93 74t69 79l25 35q10 14 18 15h90l-297 -1434h-137z" />
<glyph unicode="2" horiz-adv-x="778" d="M102 0l101 485l551 541l57 270h-328q-29 0 -58.5 25t-29.5 74q0 10 1 19t3 20h383q86 0 125 -29t39 -94q0 -16 -2 -33.5t-6 -38.5l-59 -270l-549 -541l-60 -291h328q29 0 57.5 -24.5t28.5 -71.5q0 -10 -1 -20.5t-3 -20.5h-578z" />
<glyph unicode="3" horiz-adv-x="749" d="M82 0q23 86 60.5 111.5t123.5 25.5h183q41 0 70.5 21.5t43.5 91.5l94 450h-284l24 117h285l72 348q10 37 10 60q0 35 -26.5 53t-94.5 18h-149q-96 0 -117 97q0 10 4 41h373q86 0 125 -29t39 -94q0 -16 -9 -72l-65 -313q-6 -31 -25.5 -57.5t-36.5 -42.5l-30 -28 q-14 -13 -19 -32q0 -20 16.5 -40.5t25.5 -35t9 -37.5q0 -16 -2 -24l-90 -434q-23 -104 -77 -149.5t-158 -45.5h-375z" />
<glyph unicode="4" horiz-adv-x="768" d="M229 610q0 20 21 103l336 721h135l-348 -775h305l96 461h139l-233 -1120h-139l108 522h-266q-74 0 -114 14.5t-40 73.5z" />
<glyph unicode="5" horiz-adv-x="765" d="M127 0l33 139h403l107 508h-244q-86 0 -124 32t-38 99q0 29 6 62l125 397q29 104 82 150.5t158 46.5h121q92 0 132 -26t40 -75l-4 -37h-377l-150 -510h246q74 0 117 -31.5t43 -103.5q0 -25 -6 -59l-82 -397q-23 -104 -67 -149.5t-148 -45.5h-373z" />
<glyph unicode="6" horiz-adv-x="778" d="M135 121q0 16 2 34.5t6 39.5l217 1044q23 104 76 149.5t158 45.5h123q92 0 132 -26t40 -75q0 -8 -6 -39h-373l-104 -508h243q74 0 117 -31.5t43 -103.5q0 -25 -6 -59l-82 -397q-23 -104 -67 -149.5t-148 -45.5h-209q-86 0 -124 27.5t-38 93.5zM270 137h299l109 527h-299z " />
<glyph unicode="7" horiz-adv-x="727" d="M266 0l531 1296h-351q-37 0 -58 32t-21 79v13q0 7 2 14h422q72 0 109.5 -19.5t37.5 -66.5q0 -8 -1 -16.5t-3 -18.5l-27 -70l-506 -1243h-135z" />
<glyph unicode="8" horiz-adv-x="782" d="M133 117q0 16 2 33.5t6 37.5l90 435q8 33 28 51t57 46q42 31 43 60q0 24 -31 64q-35 45 -35 67v9l65 313q23 104 67 152.5t148 48.5h222q156 0 155 -121q0 -16 -8 -74l-65 -313q-6 -23 -63.5 -76t-63.5 -80q-2 -25 19.5 -49.5t33.5 -39.5t12 -38q0 -12 -2 -20l-88 -428 q-23 -104 -67 -149.5t-148 -45.5h-213q-86 0 -125 25.5t-39 91.5zM274 137h299l115 553h-299zM418 827h299l98 469h-299z" />
<glyph unicode="9" horiz-adv-x="772" d="M184 100q0 8 1 15.5t5 21.5h373l103 490h-244q-74 0 -118 32.5t-44 104.5q0 27 6 57l88 418q23 104 76 149.5t158 45.5h188q86 0 125 -29t39 -94q0 -16 -2 -33.5t-6 -38.5l-217 -1044q-23 -104 -67 -149.5t-148 -45.5h-144q-92 0 -132 24.5t-40 75.5zM373 748h317 l115 548h-318z" />
<glyph unicode=":" horiz-adv-x="327" d="M96 2l31 148h139l-30 -148h-140zM238 682l30 147h140l-31 -147h-139z" />
<glyph unicode=";" horiz-adv-x="374" d="M53 -141l101 180l24 117h137l-22 -107l-40 -49q-19 -25 -42 -49q-35 -43 -61.5 -67.5t-61.5 -24.5h-35zM287 682l30 147h138l-31 -147h-137z" />
<glyph unicode="&#x3c;" horiz-adv-x="849" d="M254 741l477 383q86 61 164 62q25 0 47.5 -6t48.5 -17l-538 -422l360 -422q-25 -8 -46.5 -12t-43.5 -4q-43 0 -80 14.5t-72 49.5z" />
<glyph unicode="=" horiz-adv-x="790" d="M96 369v10l15 61q10 39 49 39h678q31 0 30 -28v-11l-14 -61q-6 -39 -47 -39h-678q-33 0 -33 29zM160 676l14 72q10 39 49 38h678q31 0 31 -28v-10l-12 -62q-8 -39 -48 -39h-677q-35 0 -35 29z" />
<glyph unicode="&#x3e;" horiz-adv-x="849" d="M172 319l537 422l-361 424q27 8 53.5 14.5t49.5 6.5q76 0 139 -62l319 -383l-477 -374q-45 -35 -88 -49.5t-86 -14.5q-37 0 -86 16z" />
<glyph unicode="?" horiz-adv-x="753" d="M213 2l31 148h139l-31 -148h-139zM293 385l47 225l416 439l63 299h-346q-47 0 -75.5 27.5t-28.5 80.5v17q0 8 2 16l420 -2q78 0 119.5 -27.5t41.5 -99.5q0 -33 -8 -68l-59 -284l-414 -439l-39 -184h-139z" />
<glyph unicode="@" horiz-adv-x="1202" d="M152 272q0 33 8 72l188 911q20 102 58 140.5t137 38.5h674q80 0 116.5 -22.5t36.5 -80.5q0 -16 -12 -76l-127 -610q-10 -49 -20.5 -83t-35 -53.5t-60.5 -28.5t-87 -9h-199q-6 12 -9 29.5t-3 27.5v2q-27 -23 -92.5 -44t-130.5 -21q-121 0 -121 94q0 27 6 57l25 119 q16 84 55 116t123 32h207l33 161h-191q-37 0 -58.5 20.5t-21.5 59.5q0 14 2 23h246q121 0 121 -100q0 -23 -6 -48l-86 -424h182l158 754h-799l-219 -1057h665q35 0 58.5 -19.5t23.5 -55.5q0 -8 -4 -29h-692q-78 0 -113.5 22.5t-35.5 81.5zM569 569h113q53 0 103.5 29 t64.5 98l16 84h-254z" />
<glyph unicode="A" horiz-adv-x="804" d="M102 0l269 1292q23 109 64.5 152t150.5 43h229q88 0 126 -24.5t38 -88.5q0 -31 -10 -82l-269 -1292h-137l146 700h-324l-145 -700h-138zM414 838h323l107 510h-324z" />
<glyph unicode="B" horiz-adv-x="811" d="M113 0l309 1487h403q88 0 126 -24.5t38 -88.5q0 -31 -10 -82l-72 -342q-6 -29 -25.5 -58.5t-66.5 -60.5l-80 -55l86 -78l2 -2q8 -10 14.5 -20t7.5 -22.5t-5 -37.5l-88 -421q-23 -111 -59 -153t-144 -42h-436zM279 137h323l103 494l-89 69h-221zM424 838h221l117 69 l92 441h-324z" />
<glyph unicode="C" horiz-adv-x="811" d="M143 113q0 31 11 82l227 1097q23 109 64.5 152t150.5 43h424l-53 -256h-119q-2 41 -20.5 64.5t-55.5 34.5t-96.5 14.5t-145.5 3.5l-251 -1211h333l21 96q12 66 47 99t106 37l-34 -174q-23 -111 -65 -153t-150 -42h-230q-88 0 -126 25t-38 88z" />
<glyph unicode="D" d="M113 0l309 1487h403q111 0 144 -42q19 -25 19 -74q0 -34 -9 -79l-227 -1097q-23 -111 -65 -153t-150 -42h-424zM279 137h323l252 1209h-324z" />
<glyph unicode="E" horiz-adv-x="727" d="M113 0l309 1487h539l-58 -139h-373l-106 -510h301l-29 -138h-301l-116 -563h374l-2 -137h-538z" />
<glyph unicode="F" horiz-adv-x="706" d="M113 0l309 1487h543l-58 -141h-377l-106 -508h303l-29 -138h-303l-145 -700h-137z" />
<glyph unicode="G" horiz-adv-x="811" d="M143 113q0 31 11 82l227 1097q23 109 64.5 152t150.5 43h424l-53 -254h-119q-2 41 -20.5 63.5t-56.5 37t-97 14.5h-144l-251 -1211h323l86 416h-55q-98 0 -98 100q0 10 1 19.5t3 19.5h315l-102 -497q-23 -111 -67 -153t-171 -42h-207q-88 0 -126 25t-38 88z" />
<glyph unicode="H" horiz-adv-x="862" d="M113 0l309 1487h137l-135 -649h367l135 649h137l-309 -1487h-138l146 700h-367l-145 -700h-137z" />
<glyph unicode="I" horiz-adv-x="368" d="M117 0l309 1487h139l-309 -1487h-139z" />
<glyph unicode="J" horiz-adv-x="401" d="M-150 -311q0 6 3 12q4 23 33.5 41t93 38.5t90 42t42 50.5t24.5 64.5t18 78.5l305 1471h141l-324 -1544q-23 -115 -122 -181.5t-289 -123.5z" />
<glyph unicode="K" horiz-adv-x="817" d="M113 0l288 1393h138l-117 -570l442 664h156l-516 -780l250 -707h-156l-223 600l-125 -600h-137z" />
<glyph unicode="L" horiz-adv-x="757" d="M113 0l309 1487h137l-280 -1350h278q27 137 178 137l-57 -274h-565z" />
<glyph unicode="M" horiz-adv-x="1318" d="M109 0l309 1487h84q14 -12 22 -28.5t11 -51.5q49 41 113.5 64.5t113.5 23.5q90 0 137 -37t76 -90q25 27 59.5 49.5t71.5 40t74 26.5t67 9q66 0 110 -16.5t70.5 -44t38 -63.5t11.5 -77q0 -37 -11 -84l-252 -1208h-137l242 1167q6 29 6 52q0 66 -40 96.5t-99 30.5 q-72 0 -133.5 -43t-79.5 -136l-242 -1167h-139l242 1167q6 29 6 52q0 66 -40 96.5t-100 30.5q-72 0 -133 -43t-80 -136l-241 -1167h-137z" />
<glyph unicode="N" horiz-adv-x="860" d="M113 0l309 1487h86q12 -12 20.5 -28.5t10.5 -51.5q25 20 56.5 36.5t63 28t62.5 17.5t53 6q66 0 112 -17.5t73.5 -46t40 -66.5t12.5 -81q0 -18 -2 -37.5t-6 -38.5l-252 -1208h-138l242 1167q6 25 6 47q0 70 -45 101t-104 31q-72 0 -137.5 -43t-83.5 -136l-242 -1167h-137z " />
<glyph unicode="O" d="M143 113q0 31 11 82l227 1097q23 109 64.5 152t150.5 43h229q88 0 126 -24.5t38 -88.5q0 -31 -10 -82l-227 -1097q-23 -111 -65 -153t-150 -42h-230q-88 0 -126 25t-38 88zM279 137h323l252 1211h-324z" />
<glyph unicode="P" horiz-adv-x="802" d="M113 0l309 1487h86q12 -12 20.5 -28.5t10.5 -51.5q51 41 113.5 63.5t109.5 22.5h76q82 0 116.5 -28.5t34.5 -90.5q0 -31 -10 -82l-86 -418q-20 -102 -72.5 -138t-138.5 -36h-287l-145 -700h-137zM424 838h324l106 510h-137q-86 0 -143.5 -31t-73.5 -113z" />
<glyph unicode="Q" d="M154 195l227 1097q23 109 75 152t160 43h209q111 0 144 -42q19 -25 19 -74q0 -34 -9 -79l-227 -1097q-23 -111 -75 -153t-161 -42h-43l64 -209h-56q-33 0 -50 21.5t-95 187.5h-29q-111 0 -143 42q-19 25 -20 74q1 34 10 79zM279 137h323l252 1211h-324z" />
<glyph unicode="R" horiz-adv-x="862" d="M113 0l309 1487h424q104 0 140 -45q22 -28 22 -78q0 -31 -9 -72l-81 -397q-23 -111 -72 -153t-144 -42l99 -700h-137l-97 700h-172l-145 -700h-137zM424 838h342l106 510h-342z" />
<glyph unicode="S" horiz-adv-x="829" d="M143 113q0 31 11 82l18 90q68 -2 94.5 -19.5t26.5 -50.5q0 -12 -2 -20l-12 -58h333l117 563h-266q-88 0 -126 25t-38 88q0 31 10 82l82 397q23 109 65 152t150 43h230q86 0 124.5 -23.5t38.5 -87.5q0 -16 -3 -37.5t-25 -136.5q-121 10 -121 74q0 10 2 16l12 56h-321 l-107 -510h264q90 0 128 -21.5t38 -81.5q0 -16 -2 -33.5t-6 -37.5l-96 -469q-23 -111 -64 -153t-151 -42h-240q-88 0 -126 25t-38 88z" />
<glyph unicode="T" horiz-adv-x="774" d="M319 0l281 1348h-240l29 139h619l-29 -139h-240l-280 -1348h-140z" />
<glyph unicode="U" horiz-adv-x="860" d="M162 205q0 18 2 36.5t6 37.5l252 1210h137l-244 -1172q-6 -25 -6 -47q0 -70 46 -101.5t106 -31.5q72 0 136.5 46t82.5 134l244 1172h137l-309 -1489h-86q-14 10 -21.5 26.5t-9.5 53.5q-53 -43 -121 -64.5t-115 -21.5q-66 0 -111.5 17.5t-73.5 46t-40 66.5t-12 81z" />
<glyph unicode="V" horiz-adv-x="794" d="M350 0l21 1487h137l-35 -1053h51l383 1053h140l-580 -1487h-117z" />
<glyph unicode="W" horiz-adv-x="1351" d="M156 205q0 18 2 36.5t6 37.5l252 1208h139l-244 -1168q-2 -10 -3 -21t-1 -22q0 -72 44 -105.5t106 -33.5q68 0 133 48t84 134l244 1168h139l-244 -1168q-4 -35 -4 -45q0 -72 44 -104.5t103 -32.5q70 0 135.5 45t84.5 137l243 1168h140l-252 -1208q-10 -51 -36 -102.5 t-69 -92.5t-103.5 -65.5t-142.5 -24.5q-70 0 -115.5 9t-73.5 24.5t-43 37t-24 44.5q-35 -47 -103.5 -81t-203.5 -34q-66 2 -111.5 19.5t-73.5 46t-40 66.5t-12 79z" />
<glyph unicode="X" horiz-adv-x="796" d="M47 0l408 737l-107 750h139l78 -549l303 549h156l-428 -774l102 -713h-139l-74 512l-280 -512h-158z" />
<glyph unicode="Y" d="M344 0l145 700l-124 787h137l90 -637l350 637h137l-452 -787l-146 -700h-137z" />
<glyph unicode="Z" horiz-adv-x="825" d="M131 113q0 31 10 82l21 102l684 930l26 121h-487l29 139h430q78 0 120 -27.5t42 -99.5q0 -33 -9 -68l-18 -92l-686 -930l-27 -133h492l-29 -137h-457q-88 0 -114.5 25t-26.5 88z" />
<glyph unicode="[" horiz-adv-x="665" d="M70 -164l376 1813q23 104 66 149t147 45h320q0 -57 -56.5 -97t-103.5 -40h-223l-399 -1925h221q47 0 76.5 -41t27.5 -96h-299q-104 0 -140 44q-22 27 -22 77q0 31 9 71z" />
<glyph unicode="\" horiz-adv-x="692" d="M371 1507h133l135 -1507h-131l-69 754z" />
<glyph unicode="]" horiz-adv-x="665" d="M0 -356q0 55 56.5 96t103.5 41h223l399 1925h-223q-47 0 -77 40q-26 35 -26 84q0 7 1 13h299q104 0 139 -45q21 -27 21 -76q0 -32 -9 -73l-377 -1813q-23 -104 -75 -148t-156 -44h-299z" />
<glyph unicode="^" horiz-adv-x="972" d="M216 788q0 17 3 33q23 94 96 168l473 459l283 -467q27 -41 31 -79q1 -9 1 -19q0 -32 -10 -72q-13 -53 -30 -78l-315 514l-529 -512q-3 36 -3 53z" />
<glyph unicode="_" horiz-adv-x="815" d="M-76 -418l21 107h807l-21 -107h-807z" />
<glyph unicode="`" horiz-adv-x="567" d="M412 1407l77 125q205 -123 228 -147q18 -19 18 -43q0 -7 -2 -15q-4 -10 -7 -19.5t-7 -19.5z" />
<glyph unicode="a" horiz-adv-x="804" d="M143 195l43 208q23 109 64 152t149 43h289l57 281h-245q-53 0 -83 34q-22 26 -22 70q0 15 2 33h320q161 0 161 -133q0 -28 -8 -62l-170 -821h-102q-12 20 -16 57v19q-14 -12 -46 -26.5t-72 -27t-84 -20.5t-85 -8q-104 0 -139 48q-21 29 -21 79q-1 33 8 74zM268 137h142 q70 0 134 38t81 124l32 156h-323z" />
<glyph unicode="b" horiz-adv-x="808" d="M113 0l309 1487h137l-98 -471h266q86 0 124 -29t38 -94q0 -16 -2 -33.5t-6 -38.5l-129 -626q-23 -104 -68 -149.5t-149 -45.5h-422zM279 137h323l154 742h-324z" />
<glyph unicode="c" horiz-adv-x="811" d="M141 123q0 16 2 33.5t7 38.5l129 626q23 104 67.5 149.5t149.5 45.5h422l-54 -254h-119q-2 41 -20 64.5t-56 38t-98 14.5h-143l-154 -742h324l20 96q12 66 49.5 99t114.5 35l-34 -172q-23 -104 -68 -149.5t-150 -45.5h-227q-86 0 -124 28.5t-38 94.5z" />
<glyph unicode="d" horiz-adv-x="811" d="M150 199l129 622q23 104 67.5 149.5t149.5 45.5h284l99 471h137l-309 -1487h-103q-12 20 -16 57v19q-14 -12 -46 -27.5t-72 -28t-85 -21.5t-88 -9q-104 0 -137 52q-19 31 -20 80q1 34 10 77zM274 137h142q70 0 134 38t81 124l121 580h-324z" />
<glyph unicode="e" horiz-adv-x="811" d="M150 195l129 626q23 104 66.5 149.5t148.5 45.5h229q104 0 140 -45q22 -28 22 -78q0 -31 -8 -72l-70 -340h-461l-72 -344h324l6 33q14 63 51 96t115 35l-22 -106q-23 -104 -67 -149.5t-149 -45.5h-229q-88 0 -131 45q-29 31 -29 88q0 28 7 62zM373 608h323l56 269h-324z " />
<glyph unicode="f" horiz-adv-x="608" d="M207 0l182 879h-147l28 137h148l57 276q23 104 77 149.5t159 45.5h231q0 -55 -57.5 -96t-102.5 -41h-157l-70 -334h209q-2 -76 -45 -106.5t-84 -30.5h-109l-182 -879h-137z" />
<glyph unicode="g" horiz-adv-x="811" d="M139 -356q0 55 56.5 96t101.5 41h227l45 219h-266q-86 0 -124 28.5t-38 94.5q0 16 2 33.5t7 38.5l129 626q23 104 78 152.5t159 48.5q41 0 82 -7t76 -17.5t60.5 -23.5t35.5 -26q14 25 25 39l20 29h103l-246 -1180q-23 -104 -76 -148t-158 -44h-299zM274 141h324l117 557 q6 25 6 47q0 72 -48 103t-108 31h-137z" />
<glyph unicode="h" horiz-adv-x="811" d="M109 0l309 1487h137l-113 -545q16 12 48 26.5t71 28t83 21.5t85 8q84 0 120 -30.5t36 -96.5q0 -39 -8 -78l-170 -821h-138l183 879h-127q-37 0 -74 -10.5t-68.5 -32t-56.5 -56.5t-35 -82l-145 -698h-137z" />
<glyph unicode="i" horiz-adv-x="348" d="M106 0l211 1016h140l-211 -1016h-140zM381 1319l35 170h139l-35 -170h-139z" />
<glyph unicode="j" horiz-adv-x="358" d="M-150 -293q-1 5 0 11q0 9 2 21q3 19 34.5 38.5t50 29t71.5 26.5t74.5 58t32.5 89l215 1036q63 -2 92 -42q21 -29 21 -66q0 -13 -3 -27l-194 -938q-20 -100 -107.5 -162t-275.5 -111zM393 1319l35 170h139l-35 -170h-139z" />
<glyph unicode="k" horiz-adv-x="718" d="M109 0l309 1487h137l-176 -844l309 373h141l-344 -412l199 -604h-145l-168 496l-33 -52l-92 -444h-137z" />
<glyph unicode="l" horiz-adv-x="360" d="M113 0l303 1458q8 35 56 66.5t103 31.5l-323 -1556h-139z" />
<glyph unicode="m" horiz-adv-x="1310" d="M104 0l211 1016h84q16 -12 23.5 -28.5t9.5 -49.5q51 43 114.5 64.5t112.5 21.5q90 0 136.5 -34t74.5 -87q27 27 62 49.5t71.5 38t73.5 24.5t68 9q66 0 109.5 -16.5t70.5 -44t38 -63.5t11 -77q0 -39 -10 -86l-154 -737h-137l86 418l45 221l17.5 89t3.5 24q0 66 -40 96.5 t-102 30.5q-72 0 -132 -46.5t-79 -134.5l-145 -698h-139l86 418l45 221q14 72 17 89t3 24q0 66 -40 96.5t-101 30.5q-72 0 -132 -46.5t-79 -134.5l-145 -698h-138z" />
<glyph unicode="n" horiz-adv-x="851" d="M109 0l210 1016h87q14 -12 21 -28.5t9 -49.5q53 43 121 64.5t115 21.5q66 0 111.5 -17.5t73.5 -46t40 -66.5t12 -81q0 -18 -2 -37.5t-6 -38.5l-153 -737h-138l63 302l43 206l26 128l13.5 68.5t5.5 29.5t1 11q0 70 -46 102t-106 32q-72 0 -136 -46.5t-83 -134.5l-145 -698 h-137z" />
<glyph unicode="o" horiz-adv-x="811" d="M141 123q0 16 2 33.5t7 38.5l129 626q23 104 65.5 149.5t147.5 45.5h231q86 0 124 -27.5t38 -93.5q0 -16 -2 -34.5t-6 -39.5l-129 -626q-23 -104 -67 -149.5t-149 -45.5h-229q-86 0 -124 28.5t-38 94.5zM274 137h324l154 742h-324z" />
<glyph unicode="p" horiz-adv-x="811" d="M35 -356l284 1372h101q10 -16 15 -31.5t9 -32.5q14 12 45 24.5t70 24t83 17.5t87 6q104 0 137 -51q19 -30 20 -80q0 -34 -9 -76l-129 -622q-23 -104 -65 -149.5t-146 -45.5h-291l-74 -356h-137zM274 137h324l154 742h-138q-37 0 -71.5 -10.5t-65.5 -32t-53.5 -55 t-32.5 -83.5z" />
<glyph unicode="q" horiz-adv-x="811" d="M150 195l129 626q23 104 66.5 149.5t148.5 45.5h424l-285 -1372h-137l73 356h-266q-117 0 -146 47q-17 27 -17 71q0 34 10 77zM274 137h324l154 742h-324z" />
<glyph unicode="r" horiz-adv-x="681" d="M109 0l210 1016h101q6 -12 12 -26.5t10 -41.5q31 27 94.5 47.5t149.5 20.5h170q0 -59 -49 -99t-119 -40q-6 0 -10 2l-23.5 3t-27.5 1q-37 0 -74 -8.5t-68.5 -29t-55 -56t-36.5 -91.5l-145 -698h-139z" />
<glyph unicode="s" horiz-adv-x="802" d="M119 0q18 84 65 110.5t97 26.5h313l63 312h-266q-100 0 -138 39q-24 25 -24 80q0 32 9 75l36 178q23 104 66 149.5t147 45.5h385q-23 -57 -68.5 -97t-92.5 -40h-287l-59 -291h266q104 0 140 -45q22 -28 22 -78q0 -31 -9 -72l-41 -198q-23 -104 -65.5 -149.5t-147.5 -45.5 h-411z" />
<glyph unicode="t" horiz-adv-x="600" d="M209 0l182 879h-145l28 137h146l29 137q10 53 56 86t105 35l-53 -258h209q0 -84 -53.5 -110.5t-85.5 -26.5h-99l-182 -879h-137z" />
<glyph unicode="u" horiz-adv-x="851" d="M158 203q0 18 2 37.5t6 38.5l153 737h138l-146 -699q-6 -25 -6 -47q0 -70 46 -101.5t106 -31.5q72 0 136 46t83 134l145 699h137l-210 -1016h-103q-10 12 -18 66q-53 -43 -118 -58.5t-114 -15.5q-66 0 -111.5 17.5t-73.5 46t-40 66.5t-12 81z" />
<glyph unicode="v" horiz-adv-x="811" d="M260 1008h135l37 -828h25l381 828h135l-494 -1008h-143z" />
<glyph unicode="w" horiz-adv-x="1310" d="M155 176q-1 12 -1 24q0 39 8 79l153 737h138l-146 -703q-7 -31 -7 -56q0 -52 29 -81q42 -43 113.5 -43t132 46t78.5 134l146 703h139l-145 -703q-7 -31 -7 -57q0 -51 27 -80q41 -43 112.5 -43t132 43t81.5 137l145 703h137l-153 -737q-10 -51 -35 -103.5t-66 -93.5 t-100 -66.5t-139 -25.5q-55 0 -91 7t-60.5 18.5t-41 25.5t-59.5 57q-4 -4 -26.5 -20.5t-46 -31.5t-54.5 -27.5t-71 -20.5t-95 -8q-80 2 -129 27.5t-72.5 66.5t-26.5 92z" />
<glyph unicode="x" horiz-adv-x="761" d="M55 0l357 506l-146 510h137l111 -383l270 383h138l-355 -510l144 -506h-136l-112 383l-270 -383h-138z" />
<glyph unicode="y" horiz-adv-x="794" d="M197 -336l159 336h-22l-74 1008h137l47 -758h23l352 762h139l-659 -1393z" />
<glyph unicode="z" horiz-adv-x="798" d="M139 174l23 109l563 499l20 97h-456l28 137h594l-57 -273l-565 -503l-21 -103h461l-29 -137h-424q-102 0 -130 36q-16 21 -15 63q-1 31 8 75z" />
<glyph unicode="{" horiz-adv-x="706" d="M233 700l29 138h82l113 90l121 573q12 57 41.5 101.5t81 79t123 65.5t169.5 61l13 -45q2 -2 2 -8t-2 -12q-4 -23 -34 -41.5t-59 -30.5l2 2l-59 -18q-43 -16 -68.5 -37t-42 -48.5t-24.5 -61.5l-19 -74l-100 -478q-6 -27 -22.5 -59.5t-39 -46.5l-122.5 -74 q96 -76 106.5 -93t10.5 -36q0 -6 -1.5 -13t-3.5 -18l-131 -675q0 -37 15.5 -65t62.5 -46l51 -18l-2 2q23 -10 43.5 -26.5t20.5 -39.5v-6q-4 -18 -12 -27q-8 -16 -29 -37q-145 53 -219 107.5t-74 142.5q0 25 6 54l137 659l-88 59h-78z" />
<glyph unicode="|" horiz-adv-x="266" d="M2 -356l387 1863h119l-387 -1863h-119z" />
<glyph unicode="}" horiz-adv-x="706" d="M12 -272q0 4 1 7t1 7q4 25 34 42t118 46q41 14 66.5 40t43 57.5t27.5 69.5t133 619q10 41 24.5 56.5t31.5 25.5l16 11l106 67q-106 82 -113 103.5t-7 44.5q0 14 4 34l106 472l12 62q6 30 7 52q0 39 -17.5 66.5t-60.5 44.5l-28 9q-15 5 -25 9q-20 8 -41 25.5t-21 38.5v6 q4 18 41 65q147 -53 219 -108t72 -144q0 -25 -6 -55l-144 -559l103 -104h82l-29 -138h-78l-112 -59l-138 -659q-12 -57 -41.5 -100.5t-80 -78t-123 -64.5t-168.5 -61l-13 37z" />
<glyph unicode="~" horiz-adv-x="735" d="M369 1247l20 113l72.5 45t34 16t39.5 6q18 0 31.5 -4t35.5 -20l75 -55q52 -39 70.5 -45.5t34.5 -6.5q37 0 76 29l57 43l-20 -117l-76 -45q-27 -20 -71 -20q-35 0 -58 18l-125 92q-27 23 -63 23q-39 0 -78 -29z" />
<glyph unicode="&#xa1;" horiz-adv-x="368" d="M125 86l242 1006h94l-195 -1090q-66 4 -96.5 29.5t-44.5 54.5zM399 1358l31 149h139l-30 -149h-140z" />
<glyph unicode="&#xa2;" horiz-adv-x="737" d="M174 498l102 491q23 104 77.5 149.5t158.5 45.5h57l39 186h127l-39 -186h219l-51 -244h-119q-2 43 -21 65.5t-59 34t-100.5 13.5t-146.5 2l-129 -625h344l16 86q14 66 46 98.5t110 32.5l-33 -149q-20 -104 -74.5 -149.5t-158.5 -45.5h-25l-39 -188h-127l39 188h-57 q-104 0 -141 45q-23 29 -22 82q0 30 7 68z" />
<glyph unicode="&#xa3;" horiz-adv-x="839" d="M207 0l155 748q-35 0 -72.5 -1.5t-72.5 -1.5l29 140h145l84 407q23 104 77 149.5t159 45.5h231q-20 -55 -67.5 -96t-92.5 -41h-157l-97 -465h209q-18 -76 -53 -108t-76 -32h-108l-127 -608h280q14 66 54.5 101.5t121.5 35.5l-57 -274h-565z" />
<glyph unicode="&#xa5;" d="M264 401l21 103h161l41 196l-120 787h135l82 -666q8 16 356 666h135l-448 -787l-41 -196h164l-21 -103h-164l-84 -401h-139l84 401h-162z" />
<glyph unicode="&#xa6;" horiz-adv-x="329" d="M33 -360l172 831h121l-174 -831h-119zM256 711l160 778h121l-162 -778h-119z" />
<glyph unicode="&#xa7;" horiz-adv-x="501" d="M84 49q0 4 39 184h57l-39 -180h240l49 234l-219 319l-4 6l-2 11l37 182q4 25 25.5 44t47.5 19h232l-213 308q-4 10 -6 16t-2 16v9l45 208q4 25 15 45.5t38 20.5h254q27 0 39 -13.5t12 -35.5q0 -12 -2 -19l-27 -131h-57l31 148h-242l-45 -219l207 -299q18 -25 18 -43 q0 -12 -45 -232q-6 -27 -19 -46t-44 -19h-191l162 -232q18 -25 19 -43q0 -12 -48 -241q-6 -29 -26.5 -48.5t-50.5 -19.5h-234q-20 0 -35.5 13t-15.5 38zM266 633h240l39 184h-240z" />
<glyph unicode="&#xa8;" horiz-adv-x="550" d="M324 1296l28 140h127l-28 -140h-127zM645 1296l29 140h127l-29 -140h-127z" />
<glyph unicode="&#xa9;" horiz-adv-x="1441" d="M238 598q-10 51 -10 107q0 77 18 163q31 147 104.5 269.5t179 208.5t236.5 134t274 48q145 0 256 -49t179.5 -137.5t92.5 -208.5q10 -52 10 -110q0 -74 -17 -155q-31 -145 -105 -266t-178 -208t-235.5 -135t-276.5 -48q-147 0 -258 47t-179 133t-91 207zM331 623 q17 -106 75.5 -179t154.5 -110t225 -37t243 40t203 114.5t150.5 180t87.5 236.5q16 78 17 148q0 45 -7 87q-17 105 -74.5 181t-154 117t-227.5 41t-244.5 -41t-202 -116t-148.5 -180.5t-87 -236.5q-18 -87 -18 -160q0 -45 7 -85zM604 625l98 465q14 72 54.5 105.5 t113.5 33.5h336l-39 -182h-82q-10 55 -85.5 70.5t-192.5 15.5l-115 -551h285l14 69q10 47 36 69.5t79 27.5l-27 -123q-16 -74 -55 -107t-115 -33h-194q-74 0 -101 33q-16 20 -16 56q0 23 6 51z" />
<glyph unicode="&#xaa;" horiz-adv-x="579" d="M254 848q0 23 6 53l33 154q16 80 52 110.5t116 30.5h203l45 217h-187q-76 0 -76 70q0 16 3 24h235q115 0 115 -98v-20q0 -10 -4 -23l-127 -608h-72q-4 12 -8 30.5t-6 28.5q-10 -10 -34 -21.5t-53.5 -20.5t-62.5 -15t-63 -6q-115 0 -115 94zM346 854h109q55 0 102 29.5 t61 95.5l25 119h-248z" />
<glyph unicode="&#xab;" horiz-adv-x="1380" d="M248 741l477 383q45 29 85 45.5t81 16.5q23 0 45 -6t49 -17l-539 -422l361 -422q-55 -16 -88 -16q-45 0 -82 14.5t-173 172.5zM801 741l475 383q90 61 166 62q41 0 96 -23l-541 -422l363 -422q-55 -16 -90 -16q-45 0 -82 14.5t-92 77.5l-135 159z" />
<glyph unicode="&#xad;" horiz-adv-x="765" d="M186 590l29 137h627l-29 -137h-627z" />
<glyph unicode="&#xae;" horiz-adv-x="1441" d="M240 596q-10 51 -10 107q0 77 18 163q31 147 104.5 269t179 208.5t236.5 134.5t274 48q145 0 256 -49.5t179.5 -137.5t92.5 -209q10 -52 10 -109q0 -74 -17 -155q-31 -145 -105 -266t-178 -208t-235.5 -135t-276.5 -48q-147 0 -258 47t-179 133t-91 207zM333 621 q17 -106 75.5 -179t154.5 -110t225.5 -37t242 40t201.5 114.5t151.5 180t89.5 236.5q16 78 16 148q0 45 -7 87q-17 105 -74.5 181t-154 117t-227.5 41t-244.5 -41t-201.5 -116t-148.5 -180.5t-87.5 -236.5q-18 -87 -18 -160q0 -45 7 -85zM651 487l152 723h256q49 0 66 -21 q11 -14 11 -38q0 -14 -3 -33l-46 -215q-10 -53 -41.5 -72.5t-72.5 -19.5l31 -161q16 -85 28 -163h-78l-57 324h-96l-68 -324h-82zM817 893h184l50 235h-185z" />
<glyph unicode="&#xaf;" horiz-adv-x="509" d="M334 1364l28 137h408l-29 -137h-407z" />
<glyph unicode="&#xb0;" horiz-adv-x="491" d="M336 1313q8 39 29.5 72.5t52.5 58t66.5 39t74.5 14.5q78 0 120 -53q30 -38 30 -89q0 -20 -4 -42q-8 -39 -30 -73t-50.5 -58.5t-65.5 -39t-76 -14.5q-78 0 -121 54q-31 39 -31 90q0 20 5 41zM410 1313q-3 -13 -3 -26q0 -31 18 -53q26 -32 73 -32t85 32t48 79q3 13 3 25 q0 30 -19 53q-26 33 -72.5 32.5t-84.5 -33t-48 -77.5z" />
<glyph unicode="&#xb1;" horiz-adv-x="813" d="M86 170l23 111h716l-22 -109h-289zM197 698l22 111l297 -2l66 315q4 18 26 21h94l-69 -336q72 0 303 2l-23 -109h-303l-61 -294q-2 -20 -25 -21h-96l66 313h-297z" />
<glyph unicode="&#xb2;" horiz-adv-x="524" d="M229 606l58 271l315 309l35 160h-205q-16 0 -26.5 12t-10.5 39l2 16h215q88 0 88 -72q0 -8 -1 -15t-35 -171l-316 -309l-37 -172h195q14 0 29.5 -13.5t15.5 -37.5l-2 -17h-320z" />
<glyph unicode="&#xb3;" horiz-adv-x="520" d="M229 606q4 47 28 57.5t71 10.5h102q29 0 47.5 12t28.5 57l55 261h-166l11 53h165l43 207q6 23 7 36q0 23 -16.5 34.5t-57.5 11.5h-98q-53 0 -54 47q0 12 2 20h211q88 0 88 -72q0 -8 -1 -15t-3 -17l-39 -183q-2 -12 -11 -24t-20.5 -23.5t-20.5 -23t-9 -23.5q0 -8 5 -14 l13 -17q10 -10 11 -30q0 -2 -1.5 -8.5t-6.5 -30.5l-15 -76q-10 -51 -31 -145q-12 -57 -41.5 -81t-85.5 -24h-211z" />
<glyph unicode="&#xb4;" horiz-adv-x="444" d="M322 1264q-2 18 4 43q6 35 37.5 56t287.5 144l27 -127z" />
<glyph unicode="&#xb5;" horiz-adv-x="839" d="M29 -356l284 1372h138l-146 -699q-6 -26 -6 -48q0 -18 4 -32q8 -34 29.5 -56.5t52.5 -33t66 -10.5q72 0 136 46t83 134l145 699h137l-211 -1016h-98q-10 18 -14 32.5t-6 43.5q-53 -43 -119 -63.5t-115 -20.5q-41 0 -74.5 9t-70.5 24l-78 -381h-137z" />
<glyph unicode="&#xb6;" horiz-adv-x="970" d="M199 590q0 29 10 80l129 622q23 104 77 149.5t158 45.5h652l-29 -139h-147l-281 -1348h-139l280 1348h-145l-281 -1348h-137l98 475h-82q-92 0 -127.5 28t-35.5 87z" />
<glyph unicode="&#xb7;" horiz-adv-x="272" d="M141 410v8q4 12 14.5 26.5t26 26.5t31.5 20.5t31 8.5q23 0 44 -23.5t21 -48.5l-2 -10q-2 -14 -13 -28.5t-25.5 -27t-31 -20.5t-28.5 -8q-25 0 -46.5 24.5t-21.5 51.5z" />
<glyph unicode="&#xb8;" horiz-adv-x="407" d="M-31 -346q10 45 33 69.5t45 24.5h168l12 64l-102 122l14 66h119l-12 -57l86 -107l-39 -182h-324z" />
<glyph unicode="&#xb9;" horiz-adv-x="370" d="M315 606l136 641h-84l8 45q35 16 100 86l29 35h57l-168 -807h-78z" />
<glyph unicode="&#xba;" horiz-adv-x="581" d="M260 901l98 465q16 76 46 109.5t104 33.5h176q76 0 102 -33q16 -21 17 -58q0 -23 -6 -52l-99 -465q-16 -76 -44.5 -109.5t-104.5 -33.5h-176q-74 0 -102 34q-17 21 -17 59q0 22 6 50zM348 854h246l115 559h-246z" />
<glyph unicode="&#xbb;" horiz-adv-x="1380" d="M156 319l538 422l-362 424q27 8 53.5 14.5t48.5 6.5q41 0 75 -16.5t66 -45.5l318 -383l-475 -374q-45 -35 -88 -49.5t-88 -14.5q-37 0 -86 16zM709 319l536 422l-360 424q27 8 52.5 14.5t47.5 6.5q41 0 75 -16.5t66 -45.5l318 -383l-475 -374q-45 -35 -88 -49.5 t-88 -14.5q-35 0 -84 16z" />
<glyph unicode="&#xbc;" horiz-adv-x="1265" d="M115 20q0 8 4 13l535 680l538 680q12 14 22 14q6 0 11 -2l24 -19q8 -8 8 -18q0 -6 -6 -14l-1069 -1358q-12 -12 -24 -12q-6 0 -8 2l-27 16q-8 8 -8 18zM313 627l133 641h-84l9 45q35 16 57 41l43 47q12 14 19.5 23.5t9.5 9.5h55l-166 -807h-76zM938 326q0 25 8 57l92 202 l92 201h62l-195 -440h185l55 264h61l-131 -626h-61l63 299h-147q-45 0 -64.5 6t-19.5 37z" />
<glyph unicode="&#xbd;" horiz-adv-x="1294" d="M115 20q0 8 4 13l1071 1360q16 12 24 12q6 0 11 -2l26 -17h-2q8 -8 8 -18t-6 -16v2l-1071 -1358q-12 -12 -24 -12q-4 0 -6 2l-29 16h2q-8 8 -8 18zM311 627l133 641h-82l9 45q35 16 56.5 38.5t38.5 43l24.5 30t9.5 9.5h55l-166 -807h-78zM879 -18l55 268l317 309l33 162 h-205q-14 0 -24.5 11t-10.5 38l3 18h213q86 0 86 -69q0 -8 -1.5 -16.5t-3.5 -18.5l-30 -154l-316 -309l-34 -174h204q33 0 33 -47l-2 -18h-317z" />
<glyph unicode="&#xbe;" horiz-adv-x="1269" d="M115 20q0 8 4 13l1073 1360q12 14 22 14q6 0 11 -2l24 -19q8 -8 8 -18q0 -6 -6 -14l-1069 -1358q-12 -16 -22 -16q-8 2 -15 6l-22 16q-8 8 -8 18zM313 627l133 641h-84l9 45q35 16 100 88q12 14 19.5 23.5t9.5 9.5h55l-166 -807h-76zM856 -25q2 47 26.5 56.5t71.5 9.5 h103q27 0 46 13.5t30 58.5l55 260h-166l10 53h166l43 207q6 23 6 37q0 23 -16.5 34t-56.5 11h-99q-53 0 -53 47q0 12 2 20h209q88 0 88 -69q0 -8 -1 -16.5t-3 -18.5l-39 -182q-4 -14 -8 -26.5t-19 -25.5q-12 -12 -20 -22t-12 -23q0 -8 5 -14l13 -16q6 -6 7 -13.5t1 -17.5 q0 -2 -1 -7l-6 -30l-15 -76q-10 -51 -31 -145q-12 -57 -41 -81t-86 -24h-209z" />
<glyph unicode="&#xbf;" horiz-adv-x="753" d="M123 197l59 284l414 439l39 184h139l-47 -225l-418 -441l-61 -299h346q53 0 83 -36q22 -27 22 -70q0 -15 -3 -33l-420 2q-94 0 -135 41q-26 26 -26 83q0 31 8 71zM684 1337l31 150h139l-31 -150h-139z" />
<glyph unicode="&#xc0;" d="M113 0l268 1292q23 109 64.5 152t150.5 43h229q88 0 126 -24.5t38 -88.5q0 -31 -10 -82l-268 -1292h-138l146 700h-324l-145 -700h-137zM424 838h324l106 510h-324zM600 1743l78 125q205 -123 227 -147q18 -19 18 -44q0 -7 -1 -14l-7.5 -19.5l-7.5 -19.5z" />
<glyph unicode="&#xc1;" d="M113 0l268 1292q23 109 64.5 152t150.5 43h229q88 0 126 -24.5t38 -88.5q0 -31 -10 -82l-268 -1292h-138l146 700h-324l-145 -700h-137zM424 838h324l106 510h-324zM584 1638q-2 18 4 43q6 35 37.5 56.5t287.5 144.5l27 -127z" />
<glyph unicode="&#xc2;" d="M113 0l268 1292q23 109 64.5 152t150.5 43h229q88 0 126 -24.5t38 -88.5q0 -31 -10 -82l-268 -1292h-138l146 700h-324l-145 -700h-137zM424 838h324l106 510h-324zM449 1610l2 22q8 37 37.5 59.5t72.5 47.5l238 139l180 -139q31 -23 49.5 -41.5t18.5 -46.5 q0 -12 -3.5 -26.5t-21.5 -49.5l-260 119l-309 -119q-2 10 -3 18.5t-1 16.5z" />
<glyph unicode="&#xc3;" d="M113 0l268 1292q23 109 64.5 152t150.5 43h229q88 0 126 -24.5t38 -88.5q0 -31 -10 -82l-268 -1292h-138l146 700h-324l-145 -700h-137zM424 838h324l106 510h-324zM479 1647l29 139l80 61q33 23 80 23q39 0 63 -19l63 -47l60 -43q27 -20 55 -20q31 0 64 24l84 64 l-31 -143l-78 -58q-33 -25 -76 -24q-41 0 -67 20l-67 48l-56 42q-27 20 -53 21q-31 0 -66 -25z" />
<glyph unicode="&#xc4;" horiz-adv-x="778" d="M94 0l268 1292q23 109 65 152t151 43h229q88 0 126 -24.5t38 -88.5q0 -31 -10 -82l-269 -1292h-137l145 700h-323l-146 -700h-137zM406 838h323l107 510h-324zM514 1663l29 139h127l-29 -139h-127zM836 1663l28 139h127l-28 -139h-127z" />
<glyph unicode="&#xc5;" horiz-adv-x="778" d="M94 0l268 1292q23 109 65 152t151 43h229q88 0 126 -24.5t38 -88.5q0 -31 -10 -82l-269 -1292h-137l145 700h-323l-146 -700h-137zM406 838h323l107 510h-324zM571 1630q0 18 31 160q12 59 38 77.5t79 18.5h121q41 0 58 -12t17 -43v-20q0 -9 -28 -142q-12 -53 -37 -74.5 t-78 -21.5h-119q-82 0 -82 57zM643 1647h166l35 165h-166z" />
<glyph unicode="&#xc6;" horiz-adv-x="1175" d="M31 0l501 1290q41 111 102.5 154t133.5 43h160h510q-16 -39 -27.5 -71t-26.5 -68h-323l-107 -510h281l-29 -138h-280l-117 -563h324q0 -37 -1.5 -69.5t-3.5 -67.5h-487l145 700h-344l-137 -350l-137 -350h-137zM487 838h328l107 510h-238z" />
<glyph unicode="&#xc7;" horiz-adv-x="778" d="M129 -352q6 63 61 63h179l18 88l-102 125l16 76q-117 0 -154 42q-23 26 -22 79q0 32 8 74l227 1097q23 109 65 152t150 43h424l-53 -256h-119q-2 41 -19 65.5t-55 38t-98 13.5h-145l-252 -1211h334l20 96q12 66 47 99t107 37l-35 -174q-23 -111 -61.5 -153t-147.5 -42 h-127l-16 -80l88 -108l-35 -164h-303z" />
<glyph unicode="&#xc8;" horiz-adv-x="727" d="M113 0l309 1487h539l-58 -139h-373l-106 -510h301l-29 -138h-301l-116 -563h374l-2 -137h-538zM512 1743l78 125q205 -123 227 -147q18 -19 18 -44q0 -7 -1 -14l-7.5 -19.5l-7.5 -19.5z" />
<glyph unicode="&#xc9;" horiz-adv-x="655" d="M94 0l309 1487h539l-57 -139h-373l-106 -510h301l-29 -138h-301l-117 -563h375l-2 -137h-539zM522 1626q-2 18 4 43q6 35 38 56.5t288 144.5l27 -127z" />
<glyph unicode="&#xca;" horiz-adv-x="757" d="M133 0l309 1487h539l-57 -139h-373l-107 -510h301l-28 -138h-301l-117 -563h375l-2 -137h-539zM434 1602l2 22q8 37 38 59.5t73 47.5l237 139l181 -139q31 -23 49 -41.5t18 -47.5q0 -12 -3 -26t-21 -49l-260 119l-310 -119q-2 10 -3 18.5t-1 16.5z" />
<glyph unicode="&#xcb;" horiz-adv-x="727" d="M113 0l309 1487h539l-58 -139h-373l-106 -510h301l-29 -138h-301l-116 -563h374l-2 -137h-538zM479 1657l29 139h127l-29 -139h-127zM801 1657l28 139h127l-28 -139h-127z" />
<glyph unicode="&#xcc;" horiz-adv-x="526" d="M170 0l309 1487h139l-309 -1487h-139zM461 1749l78 125q205 -123 227 -147q18 -19 18 -43q0 -7 -2 -15q-4 -10 -7 -19.5t-7 -19.5z" />
<glyph unicode="&#xcd;" horiz-adv-x="534" d="M158 0l309 1487h139l-309 -1487h-139zM442 1632q-2 18 4 43q6 35 38 56.5t288 144.5l27 -127z" />
<glyph unicode="&#xce;" horiz-adv-x="614" d="M246 0l309 1487h139l-309 -1487h-139zM344 1610l2 22q8 37 38 59.5t73 47.5l237 139l180 -139q31 -23 49.5 -41.5t18.5 -46.5q0 -12 -3 -26.5t-21 -49.5l-261 119l-309 -119q-2 10 -3 18.5t-1 16.5z" />
<glyph unicode="&#xcf;" horiz-adv-x="518" d="M190 0l310 1487h139l-309 -1487h-140zM383 1669l29 139h127l-29 -139h-127zM705 1669l28 139h127l-29 -139h-126z" />
<glyph unicode="&#xd0;" horiz-adv-x="835" d="M129 0l158 758h-47l28 139h47l123 590h404q88 0 126 -25.5t38 -89.5q0 -29 -11 -80l-227 -1097q-23 -111 -74 -153t-162 -42h-403zM297 137h321l252 1209h-321l-94 -449h188l-29 -139h-188z" />
<glyph unicode="&#xd1;" d="M94 0l309 1487h86q12 -12 20.5 -28.5t10.5 -51.5q25 20 56.5 36.5t63.5 28t62.5 17.5t53.5 6q66 0 111.5 -17.5t73.5 -46t40 -66.5t12 -81q0 -18 -2 -37.5t-6 -38.5l-252 -1208h-137l242 1167q6 25 6 47q0 70 -45 101t-105 31q-72 0 -137 -43t-84 -136l-242 -1167h-137z M483 1647l29 139l80 61q33 23 80 23q39 0 63 -19l63 -47l60 -43q27 -20 55 -20q31 0 64 24l84 64l-31 -143l-78 -58q-33 -25 -75 -24q-41 0 -68 20l-67 48l-56 42q-27 20 -53 21q-31 0 -66 -25z" />
<glyph unicode="&#xd2;" d="M143 113q0 31 11 82l227 1097q23 109 64.5 152t150.5 43h229q88 0 126 -24.5t38 -88.5q0 -31 -10 -82l-227 -1097q-23 -111 -65 -153t-150 -42h-230q-88 0 -126 25t-38 88zM279 137h323l252 1211h-324zM588 1743l78 125q205 -123 227 -147q18 -19 18 -44q0 -7 -2 -14 q-4 -10 -7 -19.5t-7 -19.5z" />
<glyph unicode="&#xd3;" d="M143 113q0 31 11 82l227 1097q23 109 64.5 152t150.5 43h229q88 0 126 -24.5t38 -88.5q0 -31 -10 -82l-227 -1097q-23 -111 -65 -153t-150 -42h-230q-88 0 -126 25t-38 88zM279 137h323l252 1211h-324zM600 1626q-2 18 4 43q6 35 38 56.5t288 144.5l26 -127z" />
<glyph unicode="&#xd4;" d="M143 113q0 31 11 82l227 1097q23 109 64.5 152t150.5 43h229q88 0 126 -24.5t38 -88.5q0 -31 -10 -82l-227 -1097q-23 -111 -65 -153t-150 -42h-230q-88 0 -126 25t-38 88zM279 137h323l252 1211h-324zM451 1608l2 22q8 37 37.5 59.5t72.5 47.5l238 139l180 -139 q31 -23 49.5 -41.5t18.5 -46.5q0 -12 -3.5 -26.5t-21.5 -49.5l-260 119l-309 -119q-2 10 -3 18.5t-1 16.5z" />
<glyph unicode="&#xd5;" d="M143 113q0 31 11 82l227 1097q23 109 64.5 152t150.5 43h229q88 0 126 -24.5t38 -88.5q0 -31 -10 -82l-227 -1097q-23 -111 -65 -153t-150 -42h-230q-88 0 -126 25t-38 88zM279 137h323l252 1211h-324zM479 1647l29 139l80 61q33 23 80 23q39 0 63 -19l63 -47l60 -43 q27 -20 55 -20q31 0 64 24l84 64l-31 -143l-78 -58q-33 -25 -76 -24q-41 0 -67 20l-67 48l-56 42q-27 20 -53 21q-31 0 -66 -25z" />
<glyph unicode="&#xd6;" horiz-adv-x="778" d="M125 113q0 31 10 82l227 1097q23 109 65 152t151 43h229q88 0 126 -24.5t38 -88.5q0 -31 -10 -82l-228 -1097q-23 -111 -64.5 -153t-150.5 -42h-229q-88 0 -126 25t-38 88zM260 137h324l252 1211h-324zM508 1663l29 139h127l-29 -139h-127zM829 1663l29 139h127l-29 -139 h-127z" />
<glyph unicode="&#xd7;" d="M147 174l285 303l-156 295l119 70l137 -260l244 260l90 -92l-272 -285l164 -303l-123 -70l-141 266l-252 -268z" />
<glyph unicode="&#xd8;" horiz-adv-x="827" d="M84 -72l72 146q-2 10 -2 32q0 18 3 40t234 1146q23 109 65 152t150 43h254l35 -4l17 33l20 34h123l-64 -125q4 -12 6 -25.5t2 -29.5q0 -31 -237 -1175q-23 -111 -64 -153t-151 -42h-262q-4 0 -11.5 1t-25.5 5l-41 -78h-123zM317 137h295l179 846h-31zM369 535h30l426 813 h-284z" />
<glyph unicode="&#xd9;" horiz-adv-x="860" d="M162 205q0 18 2 36.5t6 37.5l252 1210h137l-244 -1172q-6 -25 -6 -47q0 -70 46 -101.5t106 -31.5q72 0 136.5 46t82.5 134l244 1172h137l-309 -1489h-86q-14 10 -21.5 26.5t-9.5 53.5q-53 -43 -121 -64.5t-115 -21.5q-66 0 -111.5 17.5t-73.5 46t-40 66.5t-12 81z M594 1743l78 125q205 -123 227 -147q18 -19 18 -44q0 -7 -2 -14q-4 -10 -7 -19.5t-7 -19.5z" />
<glyph unicode="&#xda;" horiz-adv-x="860" d="M162 205q0 18 2 36.5t6 37.5l252 1210h137l-244 -1172q-6 -25 -6 -47q0 -70 46 -101.5t106 -31.5q72 0 136.5 46t82.5 134l244 1172h137l-309 -1489h-86q-14 10 -21.5 26.5t-9.5 53.5q-53 -43 -121 -64.5t-115 -21.5q-66 0 -111.5 17.5t-73.5 46t-40 66.5t-12 81z M618 1626q-2 18 5 43q6 35 37.5 56.5t287.5 144.5l27 -127z" />
<glyph unicode="&#xdb;" horiz-adv-x="860" d="M162 205q0 18 2 36.5t6 37.5l252 1210h137l-244 -1172q-6 -25 -6 -47q0 -70 46 -101.5t106 -31.5q72 0 136.5 46t82.5 134l244 1172h137l-309 -1489h-86q-14 10 -21.5 26.5t-9.5 53.5q-53 -43 -121 -64.5t-115 -21.5q-66 0 -111.5 17.5t-73.5 46t-40 66.5t-12 81z M463 1606l2 22q8 37 37.5 59.5t72.5 47.5l238 139l180 -139q31 -23 49.5 -41.5t18.5 -46.5q0 -12 -3 -26.5t-22 -49.5l-260 119l-309 -119q-2 10 -3 18.5t-1 16.5z" />
<glyph unicode="&#xdc;" d="M143 205q0 18 2 36.5t7 37.5l251 1210h138l-244 -1172q-6 -25 -6 -47q0 -70 46 -101.5t105 -31.5q72 0 136.5 46t83.5 134l243 1172h137l-309 -1489h-86q-14 10 -21.5 26.5t-9.5 53.5q-53 -43 -120.5 -64.5t-114.5 -21.5q-66 0 -112 17.5t-73.5 46t-40 66.5t-12.5 81z M514 1663l29 139h127l-29 -139h-127zM836 1663l28 139h127l-28 -139h-127z" />
<glyph unicode="&#xdd;" horiz-adv-x="835" d="M352 0l146 700l-125 787h137l90 -637l350 637h137l-452 -787l-146 -700h-137zM592 1624q-2 18 4 43q6 35 38 56.5t288 144.5l26 -127z" />
<glyph unicode="&#xde;" horiz-adv-x="811" d="M109 0l292 1405h138l-82 -387q16 12 49 28.5t72.5 31t84 23.5t85.5 9q84 0 120.5 -31.5t36.5 -97.5q0 -31 -10 -78l-74 -352q-23 -104 -77 -149.5t-158 -45.5h-267l-73 -356h-137zM348 496h324l98 467h-137q-72 0 -137.5 -42t-85.5 -137z" />
<glyph unicode="&#xdf;" horiz-adv-x="901" d="M76 14l182 187l229 1095q20 109 62.5 150t150.5 41h230q88 0 126 -24.5t38 -88.5q0 -31 -11 -82l-69 -336q-4 -27 -21.5 -60.5t-173.5 -119.5q106 -76 117.5 -93t11.5 -38q0 -8 -4 -29l-88 -421q-23 -113 -64.5 -154t-150.5 -41h-143l28 137h179l104 504l-82 59h-227 l-115 -548l-209 -236zM528 838h228l106 59l94 451h-321z" />
<glyph unicode="&#xe0;" horiz-adv-x="778" d="M137 195l43 208q23 109 64 152t149 43h289l57 281h-245q-53 0 -83 34q-22 26 -22 70q0 15 2 33h320q161 0 160 -133q0 -28 -7 -62l-170 -821h-102q-12 20 -17 57v19q-14 -12 -45.5 -26.5t-71.5 -27t-84 -20.5t-85 -8q-104 0 -139 48q-21 29 -22 79q0 33 9 74zM262 137 h141q70 0 134.5 38t80.5 124l33 156h-323zM469 1274l78 125q205 -123 227 -147q18 -19 18 -44q0 -7 -1 -14l-7.5 -19.5l-7.5 -19.5z" />
<glyph unicode="&#xe1;" horiz-adv-x="778" d="M135 195l43 208q23 109 64 152t149 43h289l57 281h-245q-53 0 -83 34q-22 26 -23 70q0 15 3 33h320q161 0 160 -133q0 -28 -7 -62l-170 -821h-102q-12 20 -17 57v19q-14 -12 -45.5 -26.5t-71.5 -27t-84 -20.5t-85 -8q-104 0 -140 48q-21 29 -21 79q0 33 9 74zM260 137 h141q70 0 134.5 38t80.5 124l33 156h-323zM512 1145q-2 18 4 43q6 35 38 56.5t288 144.5l26 -127z" />
<glyph unicode="&#xe2;" horiz-adv-x="782" d="M135 195l43 208q23 109 64 152t149 43h289l57 281h-245q-53 0 -83 34q-22 26 -23 70q0 15 3 33h320q161 0 160 -133q0 -28 -7 -62l-170 -821h-102q-12 20 -17 57v19q-14 -12 -45.5 -26.5t-71.5 -27t-84 -20.5t-85 -8q-104 0 -140 48q-21 29 -21 79q0 33 9 74zM260 137 h141q70 0 134.5 38t80.5 124l33 156h-323zM340 1149l2 22q8 37 38 59.5t73 47.5l237 139l180 -139q31 -23 49.5 -41t18.5 -47q0 -12 -3 -26.5t-22 -49.5l-260 119l-309 -119q-2 10 -3 18.5t-1 16.5z" />
<glyph unicode="&#xe3;" horiz-adv-x="778" d="M135 195l43 208q23 109 64 152t149 43h289l57 281h-245q-53 0 -83 34q-22 26 -23 70q0 15 3 33h320q161 0 160 -133q0 -28 -7 -62l-170 -821h-102q-12 20 -17 57v19q-14 -12 -45.5 -26.5t-71.5 -27t-84 -20.5t-85 -8q-104 0 -140 48q-21 29 -21 79q0 33 9 74zM260 137 h141q70 0 134.5 38t80.5 124l33 156h-323zM395 1190l29 139l80 62q33 23 80 22q39 0 63 -18l63 -47l60 -43q27 -20 55 -21q31 0 64 25l84 63l-31 -143l-78 -58q-33 -25 -76 -24q-41 0 -67 20l-67 48l-56 42q-27 20 -53 21q-31 0 -66 -25z" />
<glyph unicode="&#xe4;" horiz-adv-x="778" d="M135 195l43 208q23 109 64 152t149 43h289l57 281h-245q-53 0 -83 34q-22 26 -23 70q0 15 3 33h320q161 0 160 -133q0 -28 -7 -62l-170 -821h-102q-12 20 -17 57v19q-14 -12 -45.5 -26.5t-71.5 -27t-84 -20.5t-85 -8q-104 0 -140 48q-21 29 -21 79q0 33 9 74zM260 137 h141q70 0 134.5 38t80.5 124l33 156h-323zM416 1141l28 139h127l-28 -139h-127zM737 1141l29 139h127l-29 -139h-127z" />
<glyph unicode="&#xe5;" horiz-adv-x="778" d="M135 195l43 208q23 109 64 152t149 43h289l57 281h-245q-53 0 -83 34q-22 26 -23 70q0 15 3 33h320q161 0 160 -133q0 -28 -7 -62l-170 -821h-102q-12 20 -17 57v19q-14 -12 -45.5 -26.5t-71.5 -27t-84 -20.5t-85 -8q-104 0 -140 48q-21 29 -21 79q0 33 9 74zM260 137 h141q70 0 134.5 38t80.5 124l33 156h-323zM504 1188q0 18 31 160q12 59 37.5 77.5t78.5 18.5h121q41 0 58.5 -12.5t17.5 -42.5v-20q0 -9 -29 -142q-12 -53 -36.5 -75t-77.5 -22h-119q-82 1 -82 58zM575 1204h166l35 166h-166z" />
<glyph unicode="&#xe6;" horiz-adv-x="1228" d="M119 119q0 29 10 76l43 208q23 109 74 152t162 43h264l57 281h-244q-47 0 -75.5 25.5t-28.5 78.5v16q0 8 2 17h319q33 0 63 -6t52 -23q53 29 135 29h209q86 0 124 -29t38 -94q0 -16 -2 -33.5t-6 -38.5l-70 -340h-459l-71 -344h321l6 33q14 66 49 98.5t117 32.5l-22 -106 q-23 -104 -77 -149.5t-159 -45.5h-366q-6 12 -11.5 31.5t-7.5 44.5q-14 -12 -45 -26.5t-70.5 -27t-83.5 -20.5t-85 -8q-162 0 -162 125zM254 137h141q68 0 131.5 39t81.5 123l33 156h-322zM813 608h322l55 269h-322z" />
<glyph unicode="&#xe7;" horiz-adv-x="778" d="M125 127q0 35 8 68l129 626q23 104 67 149.5t148 45.5h424l-53 -254h-119q-2 41 -20.5 64.5t-56.5 35.5t-97 14.5t-143 2.5l-154 -742h324l20 96q14 66 48 100t116 34l-35 -172q-23 -104 -66.5 -149.5t-148.5 -45.5h-121l-16 -80l88 -108l-35 -164h-303q2 66 61 65 l168 -2l19 88l-90 125l14 76q-92 0 -134 29.5t-42 97.5z" />
<glyph unicode="&#xe8;" horiz-adv-x="778" d="M135 195l129 626q23 104 67 149.5t148 45.5h230q104 0 140 -45q22 -28 22 -78q0 -31 -9 -72l-69 -340h-461l-72 -344h324l6 33q14 63 51 96t115 35l-23 -106q-23 -104 -66.5 -149.5t-148.5 -45.5h-229q-88 0 -131 45q-29 31 -29 88q-1 28 6 62zM358 608h324l55 269h-323z M461 1268l78 125q205 -123 227 -147q18 -19 18 -44q0 -7 -2 -14q-4 -10 -7 -19.5t-7 -19.5z" />
<glyph unicode="&#xe9;" horiz-adv-x="778" d="M135 195l129 626q23 104 67 149.5t148 45.5h230q104 0 140 -45q22 -28 22 -78q0 -31 -9 -72l-69 -340h-461l-72 -344h324l6 33q14 63 51 96t115 35l-23 -106q-23 -104 -66.5 -149.5t-148.5 -45.5h-229q-88 0 -131 45q-29 31 -29 88q-1 28 6 62zM358 608h324l55 269h-323z M461 1145q-2 18 4 43q6 35 38 56.5t288 144.5l26 -127z" />
<glyph unicode="&#xea;" horiz-adv-x="778" d="M135 195l129 626q23 104 67 149.5t148 45.5h230q104 0 140 -45q22 -28 22 -78q0 -31 -9 -72l-69 -340h-461l-72 -344h324l6 33q14 63 51 96t115 35l-23 -106q-23 -104 -66.5 -149.5t-148.5 -45.5h-229q-88 0 -131 45q-29 31 -29 88q-1 28 6 62zM324 1149l2 22 q8 37 37.5 59.5t72.5 47.5l238 139l180 -139q31 -23 49.5 -41t18.5 -47q0 -12 -3.5 -26.5t-21.5 -49.5l-260 119l-309 -119q-2 10 -3 18.5t-1 16.5zM358 608h324l55 269h-323z" />
<glyph unicode="&#xeb;" horiz-adv-x="778" d="M135 195l129 626q23 104 67 149.5t148 45.5h230q104 0 140 -45q22 -28 22 -78q0 -31 -9 -72l-69 -340h-461l-72 -344h324l6 33q14 63 51 96t115 35l-23 -106q-23 -104 -66.5 -149.5t-148.5 -45.5h-229q-88 0 -131 45q-29 31 -29 88q-1 28 6 62zM358 608h324l55 269h-323z M399 1139l29 139h127l-29 -139h-127zM721 1139l29 139h127l-29 -139h-127z" />
<glyph unicode="&#xec;" horiz-adv-x="485" d="M186 0l209 1016h135l-106 -508l-107 -508h-131zM344 1270l78 125q205 -123 227 -147q18 -19 18 -44q0 -7 -1 -14l-7.5 -19.5l-7.5 -19.5z" />
<glyph unicode="&#xed;" horiz-adv-x="485" d="M154 0l208 1016h136l-107 -508l-106 -508h-131zM319 1139q-2 18 5 43q6 35 37.5 56.5t287.5 143.5l27 -127z" />
<glyph unicode="&#xee;" horiz-adv-x="614" d="M233 0l209 1016h136l-107 -508l-106 -508h-132zM250 1153l2 23q8 37 37.5 59t72.5 47l238 139l180 -139q31 -23 49.5 -41t18.5 -47q0 -12 -3 -26.5t-22 -49.5l-260 119l-309 -119q-2 10 -3 18.5t-1 16.5z" />
<glyph unicode="&#xef;" horiz-adv-x="518" d="M195 0l208 1016h136l-107 -508l-106 -508h-131zM281 1151l28 139h127l-28 -139h-127zM602 1151l29 139h127l-29 -139h-127z" />
<glyph unicode="&#xf0;" horiz-adv-x="970" d="M139 121q0 39 8 74l93 444q23 111 58.5 153t145.5 42h295l49 239q-231 -86 -253 -86q-29 0 -47.5 11.5t-22.5 52.5l352 161l14 70h-243q-47 0 -76 25.5t-29 78.5v17q0 8 2 16h320q160 0 160 -141l233 108l45 -124l-303 -125l-235 -1137h-103q-6 12 -10 33l-8 43 q-14 -12 -45 -26.5t-71 -27t-84 -20.5t-85 -8q-86 0 -123 30.5t-37 96.5zM272 137h142q35 0 68.5 9.5t63 30t51 50t30.5 72.5l82 393h-322z" />
<glyph unicode="&#xf1;" horiz-adv-x="778" d="M94 0l211 1016h86q14 -12 21.5 -28.5t9.5 -49.5q53 43 120.5 64.5t114.5 21.5q66 0 112 -17.5t73.5 -46t40 -66.5t12.5 -81q0 -18 -2 -37.5t-6 -38.5l-154 -737h-137l62 302l43 206l27 128q9 46 13 68.5t5.5 29.5t1.5 11q0 70 -46.5 102t-105.5 32q-72 0 -136.5 -46.5 t-82.5 -134.5l-146 -698h-137zM391 1190l29 139l80 62q33 23 80 22q39 0 63 -18l63 -47l60 -43q27 -20 55 -21q31 0 64 25l84 63l-31 -143l-78 -58q-33 -25 -76 -24q-41 0 -67 20l-67 48l-56 42q-27 20 -53 21q-31 0 -66 -25z" />
<glyph unicode="&#xf2;" horiz-adv-x="778" d="M127 123q0 16 2 33.5t6 38.5l129 626q23 104 66 149.5t147 45.5h232q86 0 123.5 -27.5t37.5 -93.5q0 -16 -2 -34.5t-6 -39.5l-129 -626q-23 -104 -66.5 -149.5t-148.5 -45.5h-229q-86 0 -124 28.5t-38 94.5zM260 137h324l153 742h-323zM444 1270l78 125 q205 -123 228 -147q18 -19 17 -44q0 -7 -1 -14q-4 -10 -7 -19.5t-7 -19.5z" />
<glyph unicode="&#xf3;" horiz-adv-x="737" d="M127 123q0 16 2 33.5t6 38.5l129 626q23 104 66 149.5t147 45.5h232q86 0 123.5 -27.5t37.5 -93.5q0 -16 -2 -34.5t-6 -39.5l-129 -626q-23 -104 -66.5 -149.5t-148.5 -45.5h-229q-86 0 -124 28.5t-38 94.5zM260 137h324l153 742h-323zM485 1139q-2 18 4 43q6 35 38 56.5 t288 143.5l27 -127z" />
<glyph unicode="&#xf4;" horiz-adv-x="778" d="M127 123q0 16 2 33.5t6 38.5l129 626q23 104 66 149.5t147 45.5h232q86 0 123.5 -27.5t37.5 -93.5q0 -16 -2 -34.5t-6 -39.5l-129 -626q-23 -104 -66.5 -149.5t-148.5 -45.5h-229q-86 0 -124 28.5t-38 94.5zM260 137h324l153 742h-323zM332 1149l2 22q8 37 37.5 59.5 t72.5 47.5l238 139l180 -139q31 -23 49.5 -41t18.5 -47q0 -12 -3 -26.5t-22 -49.5l-260 119l-309 -119q-2 10 -3 18.5t-1 16.5z" />
<glyph unicode="&#xf5;" horiz-adv-x="778" d="M127 123q0 16 2 33.5t6 38.5l129 626q23 104 66 149.5t147 45.5h232q86 0 123.5 -27.5t37.5 -93.5q0 -16 -2 -34.5t-6 -39.5l-129 -626q-23 -104 -66.5 -149.5t-148.5 -45.5h-229q-86 0 -124 28.5t-38 94.5zM260 137h324l153 742h-323zM369 1190l28 139l80 62 q33 23 80 22q39 0 64 -18l62 -47l60 -43q27 -20 56 -21q31 0 63 25l84 63l-31 -143l-77 -58q-33 -25 -76 -24q-41 0 -68 20l-66 48l-57 42q-27 20 -53 21q-31 0 -65 -25z" />
<glyph unicode="&#xf6;" horiz-adv-x="778" d="M127 123q0 16 2 33.5t6 38.5l129 626q23 104 66 149.5t147 45.5h232q86 0 123.5 -27.5t37.5 -93.5q0 -16 -2 -34.5t-6 -39.5l-129 -626q-23 -104 -66.5 -149.5t-148.5 -45.5h-229q-86 0 -124 28.5t-38 94.5zM260 137h324l153 742h-323zM406 1147l28 139h127l-29 -139 h-126zM727 1147l29 139h127l-29 -139h-127z" />
<glyph unicode="&#xf7;" horiz-adv-x="813" d="M156 504l22 110h717l-23 -108zM385 266l2 10q4 12 14.5 26.5t24.5 27t30.5 19.5t30.5 7q23 0 45.5 -22.5t22.5 -46.5l-2 -11q-2 -14 -13.5 -29.5t-26.5 -27.5t-31.5 -19t-28.5 -7q-23 0 -45.5 22t-22.5 51zM502 825l2 11q6 29 38.5 55.5t61.5 26.5q23 0 45.5 -23 t22.5 -49l-2 -10q-2 -14 -13.5 -29.5t-27 -28t-31.5 -19.5t-29 -7q-23 0 -45 24t-22 49z" />
<glyph unicode="&#xf9;" d="M143 203q0 18 2 37.5t7 38.5l153 737h137l-145 -699q-6 -25 -6 -47q0 -70 46 -101.5t105 -31.5q72 0 136.5 46t83.5 134l145 699h137l-211 -1016h-102q-10 12 -19 66q-53 -43 -117.5 -58.5t-113.5 -15.5q-66 0 -112 17.5t-73.5 46t-40 66.5t-12.5 81zM494 1268l77 125 q205 -123 228 -147q18 -19 17 -44q0 -7 -1 -14q-4 -10 -7 -19.5t-7 -19.5z" />
<glyph unicode="&#xfa;" d="M143 203q0 18 2 37.5t7 38.5l153 737h137l-145 -699q-6 -25 -6 -47q0 -70 46 -101.5t105 -31.5q72 0 136.5 46t83.5 134l145 699h137l-211 -1016h-102q-10 12 -19 66q-53 -43 -117.5 -58.5t-113.5 -15.5q-66 0 -112 17.5t-73.5 46t-40 66.5t-12.5 81zM500 1145 q-2 18 4 43q6 35 37.5 56.5t287.5 144.5l27 -127z" />
<glyph unicode="&#xfb;" d="M143 203q0 18 2 37.5t7 38.5l153 737h137l-145 -699q-6 -25 -6 -47q0 -70 46 -101.5t105 -31.5q72 0 136.5 46t83.5 134l145 699h137l-211 -1016h-102q-10 12 -19 66q-53 -43 -117.5 -58.5t-113.5 -15.5q-66 0 -112 17.5t-73.5 46t-40 66.5t-12.5 81zM342 1147l2 22 q8 37 38 59.5t73 47.5l237 139l180 -139q31 -23 49.5 -41t18.5 -47q0 -12 -3 -26.5t-22 -49.5l-260 119l-309 -119q-2 10 -3 18.5t-1 16.5z" />
<glyph unicode="&#xfc;" d="M143 203q0 18 2 37.5t7 38.5l153 737h137l-145 -699q-6 -25 -6 -47q0 -70 46 -101.5t105 -31.5q72 0 136.5 46t83.5 134l145 699h137l-211 -1016h-102q-10 12 -19 66q-53 -43 -117.5 -58.5t-113.5 -15.5q-66 0 -112 17.5t-73.5 46t-40 66.5t-12.5 81zM426 1153l29 139 h127l-29 -139h-127zM748 1153l28 139h127l-29 -139h-126z" />
<glyph unicode="&#xfd;" d="M209 -336l160 336h-23l-74 1008h138l47 -758h22l352 762h140l-660 -1393zM492 1151q-2 18 4 43q6 35 37.5 56.5t287.5 144.5l27 -127z" />
<glyph unicode="&#xfe;" horiz-adv-x="813" d="M37 -356l189 920l192 923h139l-115 -555q16 12 48 28.5t72 31t84 23.5t85 9q84 0 120 -31.5t36 -97.5q0 -39 -8 -78l-129 -622q-23 -104 -67 -149.5t-148 -45.5h-287l-74 -356h-137zM276 137h324l154 742h-138q-37 0 -71.5 -10.5t-65 -32t-53.5 -55t-33 -83.5z" />
<glyph unicode="&#xff;" horiz-adv-x="802" d="M201 -336l159 336h-22l-74 1008h137l48 -758h22l352 762h140l-660 -1393zM424 1151l29 139h127l-29 -139h-127zM745 1151l29 139h127l-29 -139h-127z" />
<glyph unicode="&#x131;" horiz-adv-x="307" d="M88 0l209 1016h135l-106 -508l-107 -508h-131z" />
<glyph unicode="&#x152;" horiz-adv-x="1134" d="M139 113q0 31 11 82l227 1097q23 109 75 152t160 43h244h510q-16 -35 -28 -65l-23 -64l-4 -10h-324l-106 -510h280l-28 -138h-281l-117 -563h324l-2 -137h-754q-88 0 -126 25t-38 88zM276 137h320l252 1211h-320z" />
<glyph unicode="&#x153;" horiz-adv-x="1261" d="M137 123q0 16 2 33.5t6 38.5l129 626q23 104 77.5 149.5t158.5 45.5h209q80 0 119 -27q51 27 131 27h209q86 0 123.5 -29t37.5 -94q0 -16 -2 -33.5t-6 -38.5l-69 -340h-459l-72 -344h322l6 33q14 66 49 98.5t117 32.5l-23 -106q-23 -104 -77 -149.5t-158 -45.5h-209 q-35 0 -63.5 6t-51.5 23q-29 -16 -62.5 -22.5t-72.5 -6.5h-209q-86 0 -124 28.5t-38 94.5zM270 137h322l153 742h-321zM829 608h322l55 269h-321z" />
<glyph unicode="&#x178;" d="M344 0l145 700l-124 787h137l90 -637l350 637h137l-452 -787l-146 -700h-137zM535 1675l28 140h127l-28 -140h-127zM856 1675l29 140h127l-29 -140h-127z" />
<glyph unicode="&#x2c6;" horiz-adv-x="512" d="M219 1247l2 23q8 37 38 59.5t73 46.5l237 140l181 -140q31 -23 49 -41t18 -47q0 -12 -3 -26.5t-21 -49.5l-261 119l-309 -119q-2 10 -3 18.5t-1 16.5z" />
<glyph unicode="&#x2da;" horiz-adv-x="452" d="M328 1223q0 18 30 159q12 59 38 78t79 19h121q41 0 58.5 -12.5t17.5 -43.5v-19q0 -9 -29 -142q-12 -53 -36.5 -75t-78.5 -22h-118q-82 1 -82 58zM399 1239h166l35 166h-166z" />
<glyph unicode="&#x2dc;" horiz-adv-x="538" d="M246 1190l28 139l80 62q33 23 80 22q39 0 64 -18l62 -47l61 -43q27 -20 55 -21q31 0 63 25l84 63l-30 -143l-78 -58q-33 -25 -76 -24q-41 0 -68 20l-66 48l-56 42q-27 20 -54 21q-31 0 -65 -25z" />
<glyph unicode="&#x2000;" horiz-adv-x="942" />
<glyph unicode="&#x2001;" horiz-adv-x="1886" />
<glyph unicode="&#x2002;" horiz-adv-x="942" />
<glyph unicode="&#x2003;" horiz-adv-x="1886" />
<glyph unicode="&#x2004;" horiz-adv-x="628" />
<glyph unicode="&#x2005;" horiz-adv-x="471" />
<glyph unicode="&#x2006;" horiz-adv-x="313" />
<glyph unicode="&#x2007;" horiz-adv-x="313" />
<glyph unicode="&#x2008;" horiz-adv-x="235" />
<glyph unicode="&#x2009;" horiz-adv-x="376" />
<glyph unicode="&#x200a;" horiz-adv-x="104" />
<glyph unicode="&#x2010;" horiz-adv-x="765" d="M186 590l29 137h627l-29 -137h-627z" />
<glyph unicode="&#x2011;" horiz-adv-x="765" d="M186 590l29 137h627l-29 -137h-627z" />
<glyph unicode="&#x2012;" horiz-adv-x="765" d="M186 590l29 137h627l-29 -137h-627z" />
<glyph unicode="&#x2013;" horiz-adv-x="1126" d="M180 590l27 131h1016l-27 -131h-1016z" />
<glyph unicode="&#x2014;" horiz-adv-x="1851" d="M174 586l29 135h1749l-29 -135h-1749z" />
<glyph unicode="&#x2018;" horiz-adv-x="374" d="M352 1184l27 127q14 23 56 82t67.5 83.5t60.5 24.5h37l-82 -184l-29 -133h-137z" />
<glyph unicode="&#x2019;" horiz-adv-x="395" d="M338 1184l100 180l29 137h137l-26 -127q-117 -141 -143.5 -165.5t-61.5 -24.5h-35z" />
<glyph unicode="&#x201a;" horiz-adv-x="374" d="M43 -141l100 180l25 117h137l-22 -107q-117 -141 -143.5 -165.5t-61.5 -24.5h-35z" />
<glyph unicode="&#x201c;" horiz-adv-x="673" d="M350 1184l27 127l80 98q39 45 63.5 68.5t59.5 23.5h36l-100 -182l-29 -135h-137zM633 1184l26 127l82 98q37 45 62.5 68.5t60.5 23.5h35l-98 -182l-29 -135h-139z" />
<glyph unicode="&#x201d;" horiz-adv-x="673" d="M336 1184l98 180l29 137h139l-27 -127l-81 -100q-35 -41 -61.5 -65.5t-61.5 -24.5h-35zM618 1184l101 180l29 137h137l-27 -127l-80 -100q-35 -41 -61.5 -65.5t-61.5 -24.5h-37z" />
<glyph unicode="&#x201e;" horiz-adv-x="653" d="M41 -141l98 180l25 117h139l-22 -107l-82 -98q-35 -43 -61.5 -67.5t-61.5 -24.5h-35zM324 -141l100 180l25 117h137l-23 -107l-88 -108q-33 -39 -56.5 -60.5t-58.5 -21.5h-36z" />
<glyph unicode="&#x2022;" horiz-adv-x="665" d="M133 295l109 524h526l-109 -524h-526z" />
<glyph unicode="&#x2026;" horiz-adv-x="1372" d="M106 2l31 148h139l-30 -148h-140zM618 2l31 148h139l-30 -148h-140zM1130 2l31 148h139l-30 -148h-140z" />
<glyph unicode="&#x202f;" horiz-adv-x="376" />
<glyph unicode="&#x2039;" horiz-adv-x="849" d="M254 741l477 383q86 61 164 62q25 0 47.5 -6t48.5 -17l-538 -422l360 -422q-25 -8 -46.5 -12t-43.5 -4q-43 0 -80 14.5t-72 49.5z" />
<glyph unicode="&#x203a;" horiz-adv-x="849" d="M172 319l537 422l-361 424q27 8 53.5 14.5t49.5 6.5q76 0 139 -62l319 -383l-477 -374q-45 -35 -88 -49.5t-86 -14.5q-37 0 -86 16z" />
<glyph unicode="&#x205f;" horiz-adv-x="471" />
<glyph unicode="&#x20ac;" horiz-adv-x="870" d="M190 569l29 138h115l31 153h-115l29 139h114l62 293q23 109 74 152t161 43h402l-54 -256h-118q-2 41 -20.5 64.5t-55.5 34.5t-96.5 14.5t-143.5 3.5l-74 -349h232l-29 -139h-231l-31 -153h231l-28 -138h-232l-90 -432h332l21 96q12 66 47.5 101t105.5 35l-35 -174 q-23 -111 -74 -153t-159 -42h-209q-88 0 -126 24.5t-38 88.5q0 31 10 82l78 374h-115z" />
<glyph unicode="&#x2122;" horiz-adv-x="1228" d="M328 645l161 778h-137l15 68h342l-15 -68h-137l-162 -778h-67zM684 645l176 846h43q6 -10 8 -21q3 -10 7 -32q31 25 70.5 41t66.5 16q51 -2 77.5 -21.5t43.5 -54.5q33 33 77.5 54.5t79.5 21.5q45 0 72 -14.5t40 -36.5q14 -25 14 -60q0 -25 -5 -49l-145 -690h-66l139 668 q4 19 4 34q0 32 -17 49q-26 26 -69 25.5t-79.5 -28t-49.5 -80.5l-139 -668h-67l139 668q4 19 4 34q0 32 -17 49q-26 26 -71 25.5t-81 -28t-48 -80.5l-139 -668h-68z" />
<glyph unicode="&#xe000;" horiz-adv-x="1014" d="M0 1015h1015v-1015h-1015v1015z" />
<glyph unicode="&#xfb01;" horiz-adv-x="808" d="M227 0l183 879h-146l29 137h145l58 276q23 104 77 149.5t158 45.5h299l-39 -182h-137l10 45h-217l-69 -334h354l-211 -1016h-137l182 879h-217l-182 -879h-140z" />
<glyph unicode="&#xfb02;" horiz-adv-x="854" d="M227 0l183 879h-146l29 137h145l58 276q23 104 77 149.5t158 45.5h354l-309 -1487h-137l281 1350h-275l-70 -334h189q-18 -76 -53 -106.5t-76 -30.5h-88l-182 -879h-138z" />
<glyph unicode="&#xfb03;" horiz-adv-x="1564" d="M207 0l182 879h-147l28 137h148l57 276q23 104 77 149.5t159 45.5h231q0 -55 -57.5 -96t-102.5 -41h-157l-70 -334h209q-2 -76 -45 -106.5t-84 -30.5h-109l-182 -879h-137zM815 0l182 879h-147l29 137h147l57 276q23 104 77 149.5t159 45.5h231q0 -55 -57 -96t-102 -41 h-158l-70 -334h209q-2 -76 -45 -106.5t-84 -30.5h-108l-183 -879h-137zM1323 0l211 1016h139l-211 -1016h-139zM1597 1319l35 170h140l-35 -170h-140z" />
<glyph unicode="&#xfb04;" horiz-adv-x="1576" d="M207 0l182 879h-147l28 137h148l57 276q23 104 77 149.5t159 45.5h231q0 -55 -57.5 -96t-102.5 -41h-157l-70 -334h209q-2 -76 -45 -106.5t-84 -30.5h-109l-182 -879h-137zM815 0l182 879h-147l29 137h147l57 276q23 104 77 149.5t159 45.5h231q0 -55 -57 -96t-102 -41 h-158l-70 -334h209q-2 -76 -45 -106.5t-84 -30.5h-108l-183 -879h-137zM1329 0l303 1458q8 35 56.5 66.5t103.5 31.5l-324 -1556h-139z" />
</font>
</defs>
</svg>
